P3
100 50
255
0 206 0 0 205 0 0 205 0 0 205 0 0 204 0 0 204 0 0 204 0 0 203 0 0 203 0 0 202 0 0 202 0 0 202 0 0 0 201 0 0 201 0 0 200 0 0 200 0 0 200 0 0 199 0 0 199 0 0 198 0 0 198 0 0 198 0 0 197 0 0 197 0 0 196 0 196 0 0 195 0 0 195 0 0 195 0 0 194 0 0 194 0 0 193 0 0 193 0 0 192 0 0 192 0 0 192 0 0 191 0 0 0 191 0 0 190 0 0 190 0 0 190 0 0 189 0 0 189 0 0 188 0 0 188 0 0 187 0 0 187 0 0 187 0 0 186 0 0 186 0 185 0 0 185 0 0 184 0 0 184 0 0 184 0 0 183 0 0 183 0 0 182 0 0 182 0 0 181 0 0 181 0 0 181 0 0 180 0 0 0 180 0 0 179 0 0 179 0 0 178 0 0 178 0 0 178 0 0 177 0 0 177 0 0 176 0 0 176 0 0 175 0 0 175 0 175 0 0 174 0 0 174 0 0 173 0 0 173 0 0 173 0 0 172 0 0 172 0 0 171 0 0 171 0 0 170 0 0 170 0 0 170 0 0 0 169 0 0 169 0 0 168 0 0 168 0 0 168 0 0 167 0 0 167 0 0 166 0 0 166 0 0 166 0 0 165 0 0 165 
0 205 0 0 205 0 0 205 0 0 204 0 0 204 0 0 203 0 0 203 0 0 203 0 0 202 0 0 202 0 0 202 0 0 201 0 0 0 201 0 0 200 0 0 200 0 0 200 0 0 199 0 0 199 0 0 198 0 0 198 0 0 198 0 0 197 0 0 197 0 0 196 0 0 196 0 195 0 0 195 0 0 195 0 0 194 0 0 194 0 0 193 0 0 193 0 0 193 0 0 192 0 0 192 0 0 191 0 0 191 0 0 0 190 0 0 190 0 0 190 0 0 189 0 0 189 0 0 188 0 0 188 0 0 187 0 0 187 0 0 187 0 0 186 0 0 186 0 0 185 0 185 0 0 184 0 0 184 0 0 184 0 0 183 0 0 183 0 0 182 0 0 182 0 0 182 0 0 181 0 0 181 0 0 180 0 0 180 0 0 0 179 0 0 179 0 0 179 0 0 178 0 0 178 0 0 177 0 0 177 0 0 176 0 0 176 0 0 176 0 0 175 0 0 175 0 174 0 0 174 0 0 174 0 0 173 0 0 173 0 0 172 0 0 172 0 0 171 0 0 171 0 0 171 0 0 170 0 0 170 0 0 169 0 0 0 169 0 0 169 0 0 168 0 0 168 0 0 167 0 0 167 0 0 167 0 0 166 0 0 166 0 0 165 0 0 165 0 0 165 
0 205 0 0 205 0 0 204 0 0 204 0 0 203 0 0 203 0 0 203 0 0 202 0 0 202 0 0 202 0 0 201 0 0 201 0 0 0 200 0 0 200 0 0 200 0 0 199 0 0 199 0 0 198 0 0 198 0 0 198 0 0 197 0 0 197 0 0 196 0 0 196 0 0 196 0 195 0 0 195 0 0 194 0 0 194 0 0 193 0 0 193 0 0 193 0 0 192 0 0 192 0 0 191 0 0 191 0 0 191 0 0 0 190 0 0 190 0 0 189 0 0 189 0 0 188 0 0 188 0 0 188 0 0 187 0 0 187 0 0 186 0 0 186 0 0 185 0 0 185 0 185 0 0 184 0 0 184 0 0 183 0 0 183 0 0 182 0 0 182 0 0 182 0 0 181 0 0 181 0 0 180 0 0 180 0 0 180 0 0 0 179 0 0 179 0 0 178 0 0 178 0 0 177 0 0 177 0 0 177 0 0 176 0 0 176 0 0 175 0 0 175 0 0 175 0 174 0 0 174 0 0 173 0 0 173 0 0 172 0 0 172 0 0 172 0 0 171 0 0 171 0 0 170 0 0 170 0 0 170 0 0 169 0 0 0 169 0 0 168 0 0 168 0 0 168 0 0 167 0 0 167 0 0 166 0 0 166 0 0 166 0 0 165 0 0 165 0 0 164 
0 205 0 0 204 0 0 204 0 0 203 0 0 203 0 0 203 0 0 202 0 0 202 0 0 202 0 0 201 0 0 201 0 0 200 0 0 0 200 0 0 200 0 0 199 0 0 199 0 0 198 0 0 198 0 0 198 0 0 197 0 0 197 0 0 196 0 0 196 0 0 196 0 0 195 0 195 0 0 194 0 0 194 0 0 194 0 0 193 0 0 193 0 0 192 0 0 192 0 0 191 0 0 191 0 0 191 0 0 190 0 0 0 190 0 0 189 0 0 189 0 0 189 0 0 188 0 0 188 0 0 187 0 0 187 0 0 186 0 0 186 0 0 186 0 0 185 0 0 185 0 184 0 0 184 0 0 183 0 0 183 0 0 183 0 0 182 0 0 182 0 0 181 0 0 181 0 0 181 0 0 180 0 0 180 0 0 179 0 0 0 179 0 0 178 0 0 178 0 0 178 0 0 177 0 0 177 0 0 176 0 0 176 0 0 175 0 0 175 0 0 175 0 0 174 0 174 0 0 173 0 0 173 0 0 173 0 0 172 0 0 172 0 0 171 0 0 171 0 0 171 0 0 170 0 0 170 0 0 169 0 0 169 0 0 0 169 0 0 168 0 0 168 0 0 167 0 0 167 0 0 167 0 0 166 0 0 166 0 0 165 0 0 165 0 0 165 0 0 164 
0 204 0 0 204 0 0 203 0 0 203 0 0 203 0 0 202 0 0 202 0 0 202 0 0 201 0 0 201 0 0 200 0 0 200 0 0 0 200 0 0 199 0 0 199 0 0 198 0 0 198 0 0 198 0 0 197 0 0 197 0 0 196 0 0 196 0 0 196 0 0 195 0 0 195 0 194 0 0 194 0 0 194 0 0 193 0 0 193 0 0 192 0 0 192 0 0 192 0 0 191 0 0 191 0 0 190 0 0 190 0 0 0 189 0 0 189 0 0 189 0 0 188 0 0 188 0 0 187 0 0 187 0 0 187 0 0 186 0 0 186 0 0 185 0 0 185 0 0 184 0 184 0 0 184 0 0 183 0 0 183 0 0 182 0 0 182 0 0 181 0 0 181 0 0 181 0 0 180 0 0 180 0 0 179 0 0 179 0 0 0 179 0 0 178 0 0 178 0 0 177 0 0 177 0 0 176 0 0 176 0 0 176 0 0 175 0 0 175 0 0 174 0 0 174 0 174 0 0 173 0 0 173 0 0 172 0 0 172 0 0 172 0 0 171 0 0 171 0 0 170 0 0 170 0 0 170 0 0 169 0 0 169 0 0 0 168 0 0 168 0 0 168 0 0 167 0 0 167 0 0 166 0 0 166 0 0 166 0 0 165 0 0 165 0 0 164 0 0 164 
0 204 0 0 203 0 0 203 0 0 203 0 0 202 0 0 202 0 0 201 0 0 201 0 0 201 0 0 200 0 0 200 0 0 200 0 0 0 199 0 0 199 0 0 198 0 0 198 0 0 198 0 0 197 0 0 197 0 0 196 0 0 196 0 0 196 0 0 195 0 0 195 0 0 194 0 194 0 0 194 0 0 193 0 0 193 0 0 192 0 0 192 0 0 192 0 0 191 0 0 191 0 0 190 0 0 190 0 0 190 0 0 0 189 0 0 189 0 0 188 0 0 188 0 0 187 0 0 187 0 0 187 0 0 186 0 0 186 0 0 185 0 0 185 0 0 185 0 0 184 0 184 0 0 183 0 0 183 0 0 182 0 0 182 0 0 182 0 0 181 0 0 181 0 0 180 0 0 180 0 0 180 0 0 179 0 0 179 0 0 0 178 0 0 178 0 0 177 0 0 177 0 0 177 0 0 176 0 0 176 0 0 175 0 0 175 0 0 175 0 0 174 0 0 174 0 173 0 0 173 0 0 172 0 0 172 0 0 172 0 0 171 0 0 171 0 0 170 0 0 170 0 0 170 0 0 169 0 0 169 0 0 168 0 0 0 168 0 0 168 0 0 167 0 0 167 0 0 166 0 0 166 0 0 166 0 0 165 0 0 165 0 0 165 0 0 164 0 0 164 
0 203 0 0 203 0 0 203 0 0 202 0 0 202 0 0 201 0 0 201 0 0 201 0 0 200 0 0 200 0 0 200 0 0 199 0 0 0 199 0 0 198 0 0 198 0 0 198 0 0 197 0 0 197 0 0 196 0 0 196 0 0 196 0 0 195 0 0 195 0 0 194 0 0 194 0 194 0 0 193 0 0 193 0 0 192 0 0 192 0 0 192 0 0 191 0 0 191 0 0 190 0 0 190 0 0 190 0 0 189 0 0 0 189 0 0 188 0 0 188 0 0 188 0 0 187 0 0 187 0 0 186 0 0 186 0 0 185 0 0 185 0 0 185 0 0 184 0 0 184 0 183 0 0 183 0 0 183 0 0 182 0 0 182 0 0 181 0 0 181 0 0 180 0 0 180 0 0 180 0 0 179 0 0 179 0 0 178 0 0 0 178 0 0 178 0 0 177 0 0 177 0 0 176 0 0 176 0 0 175 0 0 175 0 0 175 0 0 174 0 0 174 0 0 173 0 173 0 0 173 0 0 172 0 0 172 0 0 171 0 0 171 0 0 171 0 0 170 0 0 170 0 0 169 0 0 169 0 0 169 0 0 168 0 0 0 168 0 0 167 0 0 167 0 0 167 0 0 166 0 0 166 0 0 165 0 0 165 0 0 165 0 0 164 0 0 164 0 0 163 
0 203 0 0 202 0 0 202 0 0 202 0 0 201 0 0 201 0 0 201 0 0 200 0 0 200 0 0 200 0 0 199 0 0 199 0 0 198 0 0 0 198 0 0 198 0 0 197 0 0 197 0 0 196 0 0 196 0 0 196 0 0 195 0 0 195 0 0 194 0 0 194 0 0 194 0 193 0 0 193 0 0 192 0 0 192 0 0 192 0 0 191 0 0 191 0 0 190 0 0 190 0 0 190 0 0 189 0 0 189 0 0 188 0 0 0 188 0 0 188 0 0 187 0 0 187 0 0 186 0 0 186 0 0 186 0 0 185 0 0 185 0 0 184 0 0 184 0 0 183 0 183 0 0 183 0 0 182 0 0 182 0 0 181 0 0 181 0 0 181 0 0 180 0 0 180 0 0 179 0 0 179 0 0 179 0 0 0 178 0 0 178 0 0 177 0 0 177 0 0 176 0 0 176 0 0 176 0 0 175 0 0 175 0 0 174 0 0 174 0 0 174 0 0 173 0 173 0 0 172 0 0 172 0 0 172 0 0 171 0 0 171 0 0 170 0 0 170 0 0 170 0 0 169 0 0 169 0 0 168 0 0 0 168 0 0 168 0 0 167 0 0 167 0 0 166 0 0 166 0 0 166 0 0 165 0 0 165 0 0 164 0 0 164 0 0 164 0 0 163 
0 202 0 0 202 0 0 202 0 0 201 0 0 201 0 0 201 0 0 200 0 0 200 0 0 199 0 0 199 0 0 199 0 0 198 0 0 198 0 0 0 198 0 0 197 0 0 197 0 0 196 0 0 196 0 0 196 0 0 195 0 0 195 0 0 195 0 0 194 0 0 194 0 0 193 0 193 0 0 193 0 0 192 0 0 192 0 0 191 0 0 191 0 0 191 0 0 190 0 0 190 0 0 189 0 0 189 0 0 188 0 0 188 0 0 0 188 0 0 187 144 144 144 140 140 140 132 132 132 122 122 122 0 0 185 0 0 185 0 0 184 0 0 184 0 0 184 0 0 183 0 183 0 0 182 0 0 182 0 0 182 0 0 181 0 0 181 0 0 180 0 0 180 0 0 179 0 0 179 0 0 179 0 0 178 0 0 0 178 0 0 177 0 0 177 0 0 177 0 0 176 0 0 176 0 0 175 0 0 175 0 0 175 0 0 174 0 0 174 0 0 173 0 0 173 0 172 0 0 172 0 0 172 0 0 171 0 0 171 0 0 170 0 0 170 0 0 170 0 0 169 0 0 169 0 0 168 0 0 168 0 0 0 168 0 0 167 0 0 167 0 0 167 0 0 166 0 0 166 0 0 165 0 0 165 0 0 165 0 0 164 0 0 164 0 0 163 0 0 163 
0 202 0 0 202 0 0 201 0 0 201 0 0 201 0 0 200 0 0 200 0 0 199 0 0 199 0 0 199 0 0 198 0 0 198 0 0 198 0 0 0 197 0 0 197 0 0 196 0 0 196 0 0 196 0 0 195 0 0 195 0 0 195 0 0 194 0 0 194 0 0 193 0 0 193 0 193 0 0 192 0 0 192 0 0 191 0 0 191 0 0 191 0 0 190 0 0 190 0 0 189 0 0 189 0 0 189 0 171 171 171 173 173 173 170 170 170 166 166 166 161 161 161 155 155 155 148 148 148 140 140 140 131 131 131 121 121 121 108 108 108 91 91 91 0 0 183 0 0 183 0 182 0 0 182 0 0 182 0 0 181 0 0 181 0 0 180 0 0 180 0 0 180 0 0 179 0 0 179 0 0 178 0 0 178 0 0 0 178 0 0 177 0 0 177 0 0 176 0 0 176 0 0 175 0 0 175 0 0 175 0 0 174 0 0 174 0 0 173 0 0 173 0 0 173 0 172 0 0 172 0 0 171 0 0 171 0 0 171 0 0 170 0 0 170 0 0 169 0 0 169 0 0 169 0 0 168 0 0 168 0 0 0 167 0 0 167 0 0 167 0 0 166 0 0 166 0 0 165 0 0 165 0 0 165 0 0 164 0 0 164 0 0 164 0 0 163 0 0 163 
0 202 0 0 201 0 0 201 0 0 200 0 0 200 0 0 200 0 0 199 0 0 199 0 0 199 0 0 198 0 0 198 0 0 198 0 0 197 0 0 0 197 0 0 196 0 0 196 0 0 196 0 0 195 0 0 195 0 0 195 0 0 194 0 0 194 0 0 193 0 0 193 0 0 193 0 192 0 0 192 0 0 191 0 0 191 0 0 191 0 0 190 0 0 190 0 0 189 0 0 189 0 183 183 183 185 185 185 184 184 184 181 181 181 177 177 177 173 173 173 167 167 167 161 161 161 154 154 154 147 147 147 138 138 138 129 129 129 119 119 119 108 108 108 94 94 94 75 75 75 0 182 0 0 182 0 0 181 0 0 181 0 0 180 0 0 180 0 0 180 0 0 179 0 0 179 0 0 178 0 0 178 0 0 178 0 0 0 177 0 0 177 0 0 176 0 0 176 0 0 176 0 0 175 0 0 175 0 0 174 0 0 174 0 0 174 0 0 173 0 0 173 0 0 172 0 172 0 0 172 0 0 171 0 0 171 0 0 170 0 0 170 0 0 170 0 0 169 0 0 169 0 0 168 0 0 168 0 0 168 0 0 0 167 0 0 167 0 0 166 0 0 166 0 0 166 0 0 165 0 0 165 0 0 164 0 0 164 0 0 164 0 0 163 0 0 163 0 0 163 
0 201 0 0 201 0 0 200 0 0 200 0 0 200 0 0 199 0 0 199 0 0 199 0 0 198 0 0 198 0 0 198 0 0 197 0 0 197 0 0 0 196 0 0 196 0 0 196 0 0 195 0 0 195 0 0 195 0 0 194 0 0 194 0 0 193 0 0 193 0 0 193 0 0 192 0 192 0 0 191 0 0 191 0 0 191 0 0 190 0 0 190 0 0 189 0 184 0 0 192 192 192 193 193 193 192 192 192 189 189 189 185 185 185 181 181 181 176 176 176 170 170 170 164 164 164 157 157 157 150 150 150 142 142 142 133 133 133 124 124 124 114 114 114 102 102 102 89 89 89 72 0 0 0 181 0 0 181 0 0 181 0 0 180 0 0 180 0 0 179 0 0 179 0 0 179 0 0 178 0 0 178 0 0 177 0 0 0 177 0 0 176 0 0 176 0 0 176 0 0 175 0 0 175 0 0 174 0 0 174 0 0 174 0 0 173 0 0 173 0 0 172 0 0 172 0 172 0 0 171 0 0 171 0 0 170 0 0 170 0 0 170 0 0 169 0 0 169 0 0 169 0 0 168 0 0 168 0 0 167 0 0 0 167 0 0 167 0 0 166 0 0 166 0 0 165 0 0 165 0 0 165 0 0 164 0 0 164 0 0 163 0 0 163 0 0 163 0 0 162 
0 201 0 0 200 0 0 200 0 0 200 0 0 199 0 0 199 0 0 199 0 0 198 0 0 198 0 0 197 0 0 197 0 0 197 0 0 196 0 0 0 196 0 0 196 0 0 195 0 0 195 0 0 194 0 0 194 0 0 194 0 0 193 0 0 193 0 0 193 0 0 192 0 0 192 0 191 0 0 191 0 0 191 0 0 190 0 0 190 0 0 189 0 191 0 0 197 0 0 198 198 198 197 197 197 194 194 194 191 191 191 187 187 187 182 182 182 177 177 177 171 171 171 165 165 165 158 158 158 151 151 151 143 143 143 135 135 135 126 126 126 117 117 117 106 106 106 95 95 95 81 0 0 65 0 0 39 0 0 0 180 0 0 180 0 0 179 0 0 179 0 0 179 0 0 178 0 0 178 0 0 177 0 0 177 0 0 0 177 0 0 176 0 0 176 0 0 175 0 0 175 0 0 175 0 0 174 0 0 174 0 0 173 0 0 173 0 0 173 0 0 172 0 0 172 0 171 0 0 171 0 0 171 0 0 170 0 0 170 0 0 169 0 0 169 0 0 169 0 0 168 0 0 168 0 0 167 0 0 167 0 0 0 167 0 0 166 0 0 166 0 0 166 0 0 165 0 0 165 0 0 164 0 0 164 0 0 164 0 0 163 0 0 163 0 0 162 0 0 162 
0 200 0 0 200 0 0 200 0 0 199 0 0 199 0 0 198 0 0 198 0 0 198 0 0 197 0 0 197 0 0 197 0 0 196 0 0 196 0 0 0 196 0 0 195 0 0 195 0 0 194 0 0 194 0 0 194 0 0 193 0 0 193 0 0 193 0 0 192 0 0 192 0 0 191 0 191 0 0 191 0 0 190 0 0 190 0 0 189 0 193 0 0 200 0 0 201 201 201 200 200 200 198 198 198 195 195 195 191 191 191 187 187 187 182 182 182 177 177 177 171 171 171 165 165 165 158 158 158 151 151 151 144 144 144 136 136 136 127 127 127 118 118 118 108 108 108 97 97 97 85 0 0 71 0 0 54 0 0 28 0 0 0 180 0 0 179 0 0 179 0 0 178 0 0 178 0 0 178 0 0 177 0 0 177 0 0 0 176 0 0 176 0 0 175 0 0 175 0 0 175 0 0 174 0 0 174 0 0 173 0 0 173 0 0 173 0 0 172 0 0 172 0 0 172 0 171 0 0 171 0 0 170 0 0 170 0 0 170 0 0 169 0 0 169 0 0 168 0 0 168 0 0 168 0 0 167 0 0 167 0 0 0 166 0 0 166 0 0 166 0 0 165 0 0 165 0 0 164 0 0 164 0 0 164 0 0 163 0 0 163 0 0 163 0 0 162 0 0 162 
0 200 0 0 199 0 0 199 0 0 199 0 0 198 0 0 198 0 0 198 0 0 197 0 0 197 0 0 197 0 0 196 0 0 196 0 0 196 0 0 0 195 0 0 195 0 0 194 0 0 194 0 0 194 0 0 193 0 0 193 0 0 193 0 0 192 0 0 192 0 0 191 0 0 191 0 191 0 0 190 0 0 190 0 0 189 0 191 0 0 201 0 0 203 0 0 203 203 203 201 201 201 198 198 198 195 195 195 191 191 191 186 186 186 181 181 181 176 176 176 170 170 170 164 164 164 158 158 158 151 151 151 143 143 143 136 136 136 127 127 127 118 118 118 109 109 109 99 99 99 87 0 0 75 0 0 60 0 0 42 0 0 26 0 0 0 179 0 0 178 0 0 178 0 0 178 0 0 177 0 0 177 0 0 176 0 0 0 176 0 0 176 0 0 175 0 0 175 0 0 174 0 0 174 0 0 174 0 0 173 0 0 173 0 0 172 0 0 172 0 0 172 0 0 171 0 171 0 0 170 0 0 170 0 0 170 0 0 169 0 0 169 0 0 168 0 0 168 0 0 168 0 0 167 0 0 167 0 0 167 0 0 0 166 0 0 166 0 0 165 0 0 165 0 0 165 0 0 164 0 0 164 0 0 163 0 0 163 0 0 163 0 0 162 0 0 162 0 0 162 
0 199 0 0 199 0 0 199 0 0 198 0 0 198 0 0 198 0 0 197 0 0 197 0 0 197 0 0 196 0 0 196 0 0 195 0 0 195 0 0 0 195 0 0 194 0 0 194 0 0 194 0 0 193 0 0 193 0 0 193 0 0 192 0 0 192 0 0 191 0 0 191 0 0 191 0 190 0 0 190 0 0 189 0 0 189 0 200 0 0 204 0 0 204 0 0 203 203 203 200 200 200 197 197 197 194 194 194 190 190 190 185 185 185 180 180 180 175 175 175 169 169 169 163 163 163 156 156 156 149 149 149 142 142 142 135 135 135 126 126 126 118 118 118 109 109 109 99 99 99 88 0 0 76 0 0 63 0 0 47 0 0 26 0 0 0 178 0 0 178 0 0 178 0 0 177 0 0 177 0 0 176 0 0 176 0 0 0 176 0 0 175 0 0 175 0 0 174 0 0 174 0 0 174 0 0 173 0 0 173 0 0 173 0 0 172 0 0 172 0 0 171 0 0 171 0 171 0 0 170 0 0 170 0 0 169 0 0 169 0 0 169 0 0 168 0 0 168 0 0 167 0 0 167 0 0 167 0 0 166 0 0 0 166 0 0 166 0 0 165 0 0 165 0 0 164 0 0 164 0 0 164 0 0 163 0 0 163 0 0 162 0 0 162 0 0 162 0 0 161 
0 0 199 0 199 0 0 198 0 0 198 0 0 197 0 0 197 0 0 197 0 0 196 0 0 196 0 0 196 0 0 195 0 0 195 0 0 195 0 0 0 194 0 0 194 0 0 194 0 0 193 0 0 193 0 0 192 0 0 192 0 0 192 0 0 191 0 0 191 0 0 191 0 0 190 0 190 0 0 189 0 0 189 0 196 0 0 202 0 0 204 0 0 203 0 0 202 202 202 199 199 199 196 196 196 192 192 192 188 188 188 183 183 183 178 178 178 173 173 173 167 167 167 161 161 161 154 154 154 148 148 148 140 140 140 133 133 133 125 125 125 116 116 116 107 107 107 98 98 98 87 0 0 76 0 0 63 0 0 49 0 0 31 0 0 26 0 0 0 178 0 0 177 0 0 177 0 0 177 0 0 176 0 0 176 0 0 0 175 0 0 175 0 0 175 0 0 174 0 0 174 0 0 173 0 0 173 0 0 173 0 0 172 0 0 172 0 0 171 0 0 171 0 0 171 0 170 0 0 170 0 0 169 0 0 169 0 0 169 0 0 168 0 0 168 0 0 168 0 0 167 0 0 167 0 0 166 0 0 166 0 0 0 166 0 0 165 0 0 165 0 0 164 0 0 164 0 0 164 0 0 163 0 0 163 0 0 163 0 0 162 0 0 162 0 0 161 0 161 0 
0 0 198 0 198 0 0 198 0 0 197 0 0 197 0 0 197 0 0 196 0 0 196 0 0 196 0 0 195 0 0 195 0 0 195 0 0 194 0 0 0 194 0 0 194 0 0 193 0 0 193 0 0 192 0 0 192 0 0 192 0 0 191 0 0 191 0 0 191 0 0 190 0 0 190 0 189 0 0 189 0 181 0 0 199 0 0 202 0 0 203 0 0 202 0 0 200 200 200 197 197 197 193 193 193 190 190 190 185 185 185 181 181 181 176 176 176 170 170 170 164 164 164 158 158 158 152 152 152 145 145 145 138 138 138 131 131 131 123 123 123 115 115 115 106 106 106 96 96 96 86 0 0 75 0 0 63 0 0 49 0 0 33 0 0 26 0 0 0 177 0 0 177 0 0 177 0 0 176 0 0 176 0 0 175 0 0 0 175 0 0 175 0 0 174 0 0 174 0 0 173 0 0 173 0 0 173 0 0 172 0 0 172 0 0 172 0 0 171 0 0 171 0 0 170 0 170 0 0 170 0 0 169 0 0 169 0 0 168 0 0 168 0 0 168 0 0 167 0 0 167 0 0 167 0 0 166 0 0 166 0 0 0 165 0 0 165 0 0 165 0 0 164 0 0 164 0 0 163 0 0 163 0 0 163 0 0 162 0 0 162 0 0 162 0 0 161 0 161 0 
0 0 198 0 198 0 0 197 0 0 197 0 0 197 0 0 196 0 0 196 0 0 196 0 0 195 0 0 195 0 0 195 0 0 194 0 0 194 0 0 0 193 0 0 193 0 0 193 0 0 192 0 0 192 0 0 192 0 0 191 0 0 191 0 0 191 0 0 190 0 0 190 0 0 189 0 189 0 0 189 0 191 0 0 199 0 0 201 0 0 201 0 0 199 0 0 197 197 197 194 194 194 191 191 191 193 193 193 198 198 198 179 179 179 173 173 173 167 167 167 162 162 162 156 156 156 149 149 149 143 143 143 136 136 136 128 128 128 120 120 120 112 112 112 103 103 103 94 94 94 84 0 0 74 0 0 62 0 0 49 0 0 34 0 0 26 0 0 26 0 0 0 177 0 0 176 0 0 176 0 0 176 0 0 175 0 0 0 175 0 0 174 0 0 174 0 0 174 0 0 173 0 0 173 0 0 172 0 0 172 0 0 172 0 0 171 0 0 171 0 0 170 0 0 170 0 170 0 0 169 0 0 169 0 0 169 0 0 168 0 0 168 0 0 167 0 0 167 0 0 167 0 0 166 0 0 166 0 0 165 0 0 0 165 0 0 165 0 0 164 0 0 164 0 0 164 0 0 163 0 0 163 0 0 162 0 0 162 0 0 162 0 0 161 0 0 161 0 161 0 
0 0 197 0 197 0 0 197 0 0 197 0 0 196 0 0 196 0 0 195 0 0 195 0 0 195 0 0 194 0 0 194 0 0 194 0 0 193 0 0 0 193 0 0 193 0 0 192 0 0 192 0 0 192 0 0 191 0 0 191 0 0 191 0 0 190 0 0 190 0 0 189 0 0 189 0 189 0 0 188 0 192 0 0 197 0 0 199 0 0 198 0 0 197 0 0 194 194 194 191 191 191 189 189 189 231 231 231 235 235 235 178 178 178 170 170 170 164 164 164 158 158 158 152 152 152 146 146 146 140 140 140 133 133 133 125 125 125 117 117 117 109 109 109 101 101 101 92 92 92 82 0 0 71 0 0 60 0 0 47 0 0 33 0 0 26 0 0 26 0 0 0 176 0 0 176 0 0 176 0 0 175 0 0 175 0 0 0 174 0 0 174 0 0 174 0 0 173 0 0 173 0 0 172 0 0 172 0 0 172 0 0 171 0 0 171 0 0 171 0 0 170 0 0 170 0 169 0 0 169 0 0 169 0 0 168 0 0 168 0 0 167 0 0 167 0 0 167 0 0 166 0 0 166 0 0 166 0 0 165 0 0 0 165 0 0 164 0 0 164 0 0 164 0 0 163 0 0 163 0 0 163 0 0 162 0 0 162 0 0 161 0 0 161 0 0 161 0 160 0 
0 0 197 0 197 0 0 196 0 0 196 0 0 196 0 0 195 0 0 195 0 0 195 0 0 194 0 0 194 0 0 194 0 0 193 0 0 193 0 0 0 193 0 0 192 0 0 192 0 0 192 0 0 191 0 0 191 0 0 190 0 0 190 0 0 190 0 0 189 0 0 189 0 0 189 0 188 0 175 0 0 191 0 0 195 0 0 196 0 0 195 0 0 193 0 0 191 191 191 188 188 188 185 185 185 199 199 199 188 188 188 171 171 171 166 166 166 161 161 161 155 155 155 149 149 149 143 143 143 136 136 136 129 129 129 122 122 122 114 114 114 106 106 106 98 98 98 89 89 89 79 0 0 68 0 0 57 0 0 45 0 0 31 0 0 26 0 0 26 0 0 0 176 0 0 176 0 0 175 0 0 175 0 0 175 0 0 0 174 0 0 174 0 0 173 0 0 173 0 0 173 0 0 172 0 0 172 0 0 171 0 0 171 0 0 171 0 0 170 0 0 170 0 0 169 0 169 0 0 169 0 0 168 0 0 168 0 0 168 0 0 167 0 0 167 0 0 166 0 0 166 0 0 166 0 0 165 0 0 165 0 0 0 165 0 0 164 0 0 164 0 0 163 0 0 163 0 0 163 0 0 162 0 0 162 0 0 162 0 0 161 0 0 161 0 0 160 0 160 0 
0 0 197 0 196 0 0 196 0 0 196 0 0 195 0 0 195 0 0 195 0 0 194 0 0 194 0 0 194 0 0 193 0 0 193 0 0 193 0 0 0 192 0 0 192 0 0 192 0 0 191 0 0 191 0 0 190 0 0 190 0 0 190 0 0 189 0 0 189 0 0 189 0 0 188 0 188 0 178 0 0 188 0 0 191 0 0 192 0 0 191 0 0 189 0 0 187 187 187 184 184 184 180 180 180 177 177 177 172 172 172 167 167 167 162 162 162 157 157 157 151 151 151 145 145 145 139 139 139 132 132 132 125 125 125 118 118 118 111 111 111 103 103 103 94 94 94 85 85 85 75 0 0 65 0 0 54 0 0 42 0 0 28 0 0 26 0 0 26 0 0 26 0 0 0 175 0 0 175 0 0 175 0 0 174 0 0 0 174 0 0 173 0 0 173 0 0 173 0 0 172 0 0 172 0 0 172 0 0 171 0 0 171 0 0 170 0 0 170 0 0 170 0 0 169 0 169 0 0 168 0 0 168 0 0 168 0 0 167 0 0 167 0 0 167 0 0 166 0 0 166 0 0 165 0 0 165 0 0 165 0 0 0 164 0 0 164 0 0 164 0 0 163 0 0 163 0 0 162 0 0 162 0 0 162 0 0 161 0 0 161 0 0 161 0 0 160 0 160 0 
0 0 196 0 196 0 0 195 0 0 195 0 0 195 0 0 194 0 0 194 0 0 194 0 0 193 0 0 193 0 0 193 0 0 192 0 0 192 0 0 0 192 0 0 191 0 0 191 0 0 191 0 0 190 0 0 190 0 0 190 0 0 189 0 0 189 0 0 189 0 0 188 0 0 188 0 187 0 176 0 0 185 0 0 187 0 0 188 0 0 187 0 0 185 0 0 183 183 183 180 180 180 176 176 176 172 172 172 168 168 168 163 163 163 158 158 158 153 153 153 147 147 147 141 141 141 135 135 135 128 128 128 121 121 121 114 114 114 107 107 107 99 99 99 90 90 90 81 81 81 72 0 0 61 0 0 50 0 0 38 0 0 26 0 0 26 0 0 26 0 0 26 0 0 0 26 0 0 26 0 0 26 0 0 174 0 0 0 173 0 0 173 0 0 173 0 0 172 0 0 172 0 0 172 0 0 171 0 0 171 0 0 170 0 0 170 0 0 170 0 0 169 0 0 169 0 169 0 0 168 0 0 168 0 0 167 0 0 167 0 0 167 0 0 166 0 0 166 0 0 166 0 0 165 0 0 165 0 0 164 0 0 0 164 0 0 164 0 0 163 0 0 163 0 0 163 0 0 162 0 0 162 0 0 161 0 0 161 0 0 161 0 0 160 0 0 160 0 160 0 
0 0 196 0 195 0 0 195 0 0 195 0 0 194 0 0 194 0 0 194 0 0 193 0 0 193 0 0 193 0 0 192 0 0 192 0 0 192 0 0 0 191 0 0 191 0 0 191 0 0 190 0 0 190 0 0 190 0 0 189 0 0 189 0 0 189 0 0 188 0 0 188 0 0 187 0 187 0 172 0 0 180 0 0 183 0 0 183 0 0 182 0 0 181 181 181 178 178 178 175 175 175 171 171 171 167 167 167 163 163 163 158 158 158 153 153 153 148 148 148 142 142 142 137 137 137 130 130 130 124 124 124 117 117 117 110 110 110 102 102 102 94 94 94 86 86 86 77 77 77 67 0 0 57 0 0 46 0 0 34 0 0 26 0 0 26 0 0 26 0 0 26 0 0 0 26 0 0 26 0 0 26 0 0 26 0 0 0 26 0 0 173 0 0 172 0 0 172 0 0 172 0 0 171 0 0 171 0 0 171 0 0 170 0 0 170 0 0 169 0 0 169 0 0 169 0 168 0 0 168 0 0 167 0 0 167 0 0 167 0 0 166 0 0 166 0 0 166 0 0 165 0 0 165 0 0 164 0 0 164 0 0 0 164 0 0 163 0 0 163 0 0 163 0 0 162 0 0 162 0 0 162 0 0 161 0 0 161 0 0 160 0 0 160 0 0 160 0 159 0 
0 0 195 0 195 0 0 195 0 0 194 0 0 194 0 0 194 0 0 193 0 0 193 0 0 193 0 0 192 0 0 192 0 0 192 0 0 191 0 0 0 191 0 0 191 0 0 190 0 0 190 0 0 190 0 0 189 0 0 189 0 0 188 0 0 188 0 0 188 0 0 187 0 0 187 0 187 0 167 0 0 175 0 0 178 0 0 178 0 0 177 0 0 176 176 176 173 173 173 170 170 170 166 166 166 163 163 163 158 158 158 154 154 154 149 149 149 143 143 143 138 138 138 132 132 132 126 126 126 119 119 119 112 112 112 105 105 105 98 98 98 90 90 90 81 81 81 72 72 72 63 0 0 53 0 0 42 0 0 29 0 0 26 0 0 26 0 0 26 0 0 26 0 0 0 26 0 0 26 0 0 26 0 0 26 0 0 0 26 0 0 26 0 0 26 0 0 172 0 0 171 0 0 171 0 0 171 0 0 170 0 0 170 0 0 169 0 0 169 0 0 169 0 0 168 0 168 0 0 168 0 0 167 0 0 167 0 0 166 0 0 166 0 0 166 0 0 165 0 0 165 0 0 165 0 0 164 0 0 164 0 0 0 163 0 0 163 0 0 163 0 0 162 0 0 162 0 0 162 0 0 161 0 0 161 0 0 161 0 0 160 0 0 160 0 0 159 0 159 0 
0 0 195 0 194 0 0 194 0 0 194 0 0 193 0 0 193 0 0 193 0 0 192 0 0 192 0 0 192 0 0 191 0 0 191 0 0 191 0 0 0 190 0 0 190 0 0 190 0 0 189 0 0 189 0 0 189 0 0 188 0 0 188 0 0 188 0 0 187 0 0 187 0 0 187 0 0 186 160 0 0 169 0 0 172 0 0 173 0 0 172 0 0 170 0 0 168 168 168 165 165 165 161 161 161 157 157 157 153 153 153 148 148 148 143 143 143 138 138 138 133 133 133 127 127 127 121 121 121 114 114 114 107 107 107 100 100 100 92 92 92 85 85 85 76 76 76 67 67 67 58 0 0 47 0 0 36 0 0 26 0 0 26 0 0 26 0 0 26 0 0 26 0 0 0 26 0 0 26 0 0 26 0 0 26 0 0 0 26 0 0 26 0 0 26 0 0 26 0 0 26 0 0 171 0 0 170 0 0 170 0 0 170 0 0 169 0 0 169 0 0 168 0 168 0 0 168 0 0 167 0 0 167 0 0 167 0 0 166 0 0 166 0 0 165 0 0 165 0 0 165 0 0 164 0 0 164 0 0 164 0 0 0 163 0 0 163 0 0 162 0 0 162 0 0 162 0 0 161 0 0 161 0 0 161 0 0 160 0 0 160 0 0 160 0 0 159 0 159 0 
0 0 194 0 194 0 0 194 0 0 193 0 0 193 0 0 193 0 0 192 0 0 192 0 0 192 0 0 191 0 0 191 0 0 191 0 0 190 0 0 0 190 0 0 190 0 0 189 0 0 189 0 0 189 0 0 188 0 0 188 0 0 188 0 0 187 0 0 187 0 0 187 0 0 186 0 0 186 152 0 0 162 0 0 166 0 0 166 0 0 166 0 0 164 0 0 162 162 162 159 159 159 156 156 156 152 152 152 148 148 148 143 143 143 138 138 138 133 133 133 127 127 127 121 121 121 115 115 115 109 109 109 102 102 102 95 95 95 87 87 87 79 79 79 71 71 71 62 62 62 52 0 0 42 0 0 31 0 0 26 0 0 26 0 0 26 0 0 26 0 0 26 0 0 0 26 0 0 26 0 0 26 0 0 26 0 0 0 26 0 0 26 0 0 26 0 0 26 0 0 26 0 0 26 0 0 170 0 0 170 0 0 169 0 0 169 0 0 168 0 0 168 0 168 0 77 154 15 79 158 16 77 155 15 74 148 15 68 137 14 60 121 12 47 94 9 0 165 0 0 164 0 0 164 0 0 164 0 0 163 0 0 0 163 0 0 163 0 0 162 0 0 162 0 0 161 0 0 161 0 0 161 0 0 160 0 0 160 0 0 160 0 0 159 0 0 159 0 159 0 
0 0 194 0 193 0 0 193 0 0 193 0 0 193 0 0 192 0 0 192 0 0 192 0 0 191 0 0 191 0 0 191 0 0 190 0 0 190 0 0 0 190 0 0 189 0 0 189 0 0 189 0 0 188 0 0 188 0 0 188 0 0 187 0 0 187 0 0 187 0 0 186 0 0 186 0 0 185 140 0 0 154 0 0 158 0 0 160 0 0 159 0 0 158 0 0 156 156 156 153 153 153 150 150 150 146 146 146 142 142 142 137 137 137 132 132 132 127 127 127 122 122 122 116 116 116 109 109 109 103 103 103 96 96 96 89 89 89 81 81 81 73 73 73 65 65 65 56 56 56 46 0 0 36 0 0 26 0 0 26 0 0 26 0 0 26 0 0 26 0 0 26 0 0 0 26 0 0 26 0 0 26 0 0 26 0 0 0 26 0 0 26 0 0 26 0 0 26 0 0 26 0 0 26 0 0 26 0 0 169 0 0 169 0 0 169 0 0 168 86 171 17 90 180 18 91 181 18 90 179 18 87 174 17 84 167 17 79 157 16 73 145 15 65 130 13 55 110 11 39 79 8 0 164 0 0 163 0 0 163 0 0 0 163 0 0 162 0 0 162 0 0 162 0 0 161 0 0 161 0 0 160 0 0 160 0 0 160 0 0 159 0 0 159 0 0 159 0 158 0 
0 0 193 0 193 0 0 193 0 0 192 0 0 192 0 0 192 0 0 191 0 0 191 0 0 191 0 0 190 0 0 190 0 0 190 0 0 189 0 0 0 189 0 0 189 0 0 188 0 0 188 0 0 188 0 0 187 0 0 187 0 0 187 0 0 186 0 0 186 0 0 186 0 0 185 0 0 185 0 185 0 145 0 0 151 0 0 152 0 0 152 0 0 151 0 0 149 149 149 146 146 146 143 143 143 140 140 140 135 135 135 131 131 131 126 126 126 121 121 121 115 115 115 110 110 110 103 103 103 97 97 97 90 90 90 83 83 83 75 75 75 67 67 67 59 59 59 49 49 49 40 0 0 29 0 0 26 0 0 26 0 0 26 0 0 26 0 0 26 0 0 0 26 0 0 26 0 0 26 0 0 26 0 0 26 0 0 0 26 0 0 26 0 0 26 0 0 26 0 0 26 0 0 26 0 0 26 0 0 26 0 0 26 76 151 15 91 183 18 96 191 19 97 194 19 96 193 19 95 189 19 92 184 18 88 176 18 84 167 17 78 156 16 72 143 14 64 127 13 54 107 11 39 79 8 0 163 0 0 163 0 0 0 162 0 0 162 0 0 162 0 0 161 0 0 161 0 0 161 0 0 160 0 0 160 0 0 159 0 0 159 0 0 159 0 0 158 0 158 0 
0 0 193 0 193 0 0 192 0 0 192 0 0 192 0 0 191 0 0 191 0 0 191 0 0 190 0 0 190 0 0 190 0 0 189 0 0 189 0 0 0 189 0 0 188 0 0 188 0 0 188 0 0 187 0 0 187 0 0 187 0 0 186 0 0 186 0 0 186 0 0 185 0 0 185 0 0 185 0 184 0 134 0 0 142 0 0 144 0 0 145 0 0 144 0 0 142 142 142 139 139 139 136 136 136 133 133 133 129 129 129 124 124 124 120 120 120 114 114 114 109 109 109 103 103 103 97 97 97 90 90 90 84 84 84 76 76 76 69 69 69 60 60 60 52 52 52 43 43 43 33 0 0 26 0 0 26 0 0 26 0 0 26 0 0 26 0 0 26 0 0 0 26 0 0 26 0 0 26 0 0 26 0 0 26 0 0 0 26 0 0 26 0 0 26 0 0 26 0 0 26 0 0 26 0 0 26 0 0 26 0 0 26 92 185 18 98 196 20 100 200 20 100 200 20 99 198 20 97 194 19 94 189 19 91 181 18 86 172 17 81 162 16 75 150 15 68 135 14 59 118 12 48 97 10 34 67 7 0 162 0 0 0 162 0 0 162 0 0 161 0 0 161 0 0 161 0 0 160 0 0 160 0 0 160 0 0 159 0 0 159 0 0 159 0 0 158 0 158 0 
0 0 192 0 192 0 0 192 0 0 191 0 0 191 0 0 191 0 0 191 0 0 190 0 0 190 0 0 190 0 0 189 0 0 189 0 0 189 0 0 0 188 0 0 188 0 0 188 0 0 187 0 0 187 0 0 187 0 0 186 0 0 186 0 0 186 0 0 185 0 0 185 0 0 185 0 0 184 0 184 0 118 0 0 131 0 0 135 0 0 136 0 0 136 0 0 134 134 134 132 132 132 129 129 129 126 126 126 122 122 122 117 117 117 113 113 113 108 108 108 102 102 102 96 96 96 90 90 90 84 84 84 77 77 77 69 69 69 62 62 62 53 53 53 45 45 45 35 35 35 26 0 0 26 0 0 26 0 0 26 0 0 26 0 0 26 0 0 26 0 0 0 26 0 0 26 0 0 26 0 0 26 0 0 26 0 0 0 26 0 0 26 0 0 26 0 0 26 0 0 26 0 0 26 0 0 26 0 0 26 89 179 18 97 194 19 100 201 20 102 203 20 101 203 20 100 200 20 98 196 20 95 190 19 92 183 18 87 175 17 82 164 16 76 153 15 70 139 14 62 124 12 52 105 10 41 81 8 23 46 5 0 0 162 0 0 161 0 0 161 0 0 161 0 0 160 0 0 160 0 0 160 0 0 159 0 0 159 0 0 159 0 0 158 0 0 158 0 158 0 
0 0 192 0 192 0 0 191 0 0 191 0 0 191 0 0 190 0 0 190 0 0 190 0 0 189 0 0 189 0 0 189 0 0 188 0 0 188 0 0 188 0 0 0 188 0 0 187 0 0 187 0 0 187 0 0 186 0 0 186 0 0 186 0 0 185 0 0 185 0 0 185 0 0 184 0 0 184 0 183 0 0 183 0 118 0 0 125 0 0 127 0 0 127 0 0 126 126 126 124 124 124 121 121 121 118 118 118 114 114 114 110 110 110 105 105 105 100 100 100 95 95 95 89 89 89 83 83 83 76 76 76 69 69 69 62 62 62 54 54 54 46 46 46 37 37 37 27 27 27 26 0 0 26 0 0 26 0 0 26 0 0 26 0 0 26 0 0 0 26 0 0 26 0 0 26 0 0 26 0 0 26 0 0 26 0 0 0 26 0 0 26 0 0 26 0 0 26 0 0 26 0 0 26 0 0 26 79 157 16 93 187 19 99 198 20 101 202 20 102 204 20 101 203 20 100 200 20 98 196 20 95 190 19 91 183 18 87 174 17 82 165 16 77 153 15 70 140 14 63 126 13 54 108 11 44 87 9 30 60 6 13 26 3 0 0 161 0 0 161 0 0 160 0 0 160 0 0 160 0 0 159 0 0 159 0 0 159 0 0 158 0 0 158 0 0 158 0 157 0 
0 0 191 0 191 0 0 191 0 0 191 0 0 190 0 0 190 0 0 190 0 0 189 0 0 189 0 0 189 0 0 188 0 0 188 0 0 188 0 0 187 0 0 0 187 0 0 187 0 0 186 0 0 186 0 0 186 0 0 185 0 0 185 0 0 185 0 0 184 0 0 184 0 0 184 0 0 183 0 183 0 0 183 0 98 0 0 112 0 0 116 0 0 117 0 0 117 117 117 115 115 115 113 113 113 109 109 109 106 106 106 102 102 102 97 97 97 92 92 92 87 87 87 81 81 81 75 75 75 68 68 68 61 61 61 54 54 54 46 46 46 37 37 37 28 28 28 26 26 26 26 0 0 26 0 0 26 0 0 26 0 0 26 0 0 26 0 0 0 26 0 0 26 0 0 26 0 0 26 0 0 26 0 0 26 0 0 0 26 0 0 26 0 0 26 0 0 26 0 0 26 0 0 26 0 0 26 85 169 17 94 189 19 99 197 20 101 201 20 101 202 20 100 201 20 105 204 26 100 196 22 94 188 19 90 181 18 86 172 17 81 163 16 76 152 15 70 139 14 63 125 13 54 109 11 44 89 9 32 64 6 14 28 3 0 0 161 0 0 161 0 0 160 0 0 160 0 0 159 0 0 159 0 0 159 0 0 158 0 0 158 0 0 158 0 0 157 0 157 0 
0 0 191 0 191 0 0 190 0 0 190 0 0 190 0 0 189 0 0 189 0 0 189 0 0 189 0 0 188 0 0 188 0 0 188 0 0 187 0 0 187 0 0 0 187 0 0 186 0 0 186 0 0 186 157 126 16 149 119 15 132 106 13 110 88 11 78 62 8 0 0 184 0 0 183 0 0 183 0 183 0 0 182 0 0 182 0 95 0 0 103 0 0 106 0 0 106 106 106 105 105 105 103 103 103 100 100 100 97 97 97 93 93 93 88 88 88 84 84 84 78 78 78 72 72 72 66 66 66 60 60 60 53 53 53 45 45 45 37 37 37 28 28 28 26 26 26 26 26 26 26 0 0 26 0 0 26 0 0 26 0 0 26 0 0 0 26 0 0 26 0 0 26 0 0 26 0 0 26 0 0 26 0 0 26 0 0 0 26 0 0 26 0 0 26 0 0 26 0 0 26 0 0 26 0 0 26 85 171 17 93 187 19 97 194 19 99 198 20 99 198 20 99 197 20 128 225 50 103 198 27 92 184 18 88 177 18 84 169 17 80 159 16 74 148 15 68 136 14 61 122 12 53 107 11 44 88 9 32 65 6 17 34 3 0 0 161 0 0 160 0 0 160 0 0 160 0 0 159 0 0 159 0 0 158 0 0 158 0 0 158 0 0 157 0 0 157 0 157 0 
0 0 190 0 0 190 0 190 0 0 190 0 0 189 0 0 189 0 0 189 0 0 188 0 0 188 0 0 188 0 0 187 0 0 187 0 0 187 0 0 187 0 0 0 186 0 0 186 187 150 19 185 148 19 175 140 17 160 128 16 143 114 14 122 98 12 99 79 10 70 56 7 26 20 3 0 0 183 0 182 0 0 182 0 0 182 0 0 181 0 86 0 0 92 0 0 94 94 94 94 94 94 93 93 93 90 90 90 87 87 87 83 83 83 79 79 79 74 74 74 69 69 69 63 63 63 57 57 57 50 50 50 43 43 43 35 35 35 27 27 27 26 26 26 26 26 26 26 26 26 26 0 0 26 0 0 26 0 0 26 0 0 0 26 0 0 26 0 0 26 0 0 26 0 0 26 0 0 26 0 0 26 0 0 26 0 0 0 26 0 0 26 0 0 26 0 0 26 0 0 26 0 0 26 0 0 26 83 167 17 91 182 18 95 189 19 96 192 19 97 193 19 96 192 19 94 189 19 92 184 18 89 179 18 86 172 17 82 164 16 77 154 15 72 144 14 66 132 13 59 118 12 51 103 10 42 84 8 31 62 6 17 33 3 0 0 160 0 0 160 0 0 160 0 0 159 0 0 159 0 0 159 0 0 158 0 0 158 0 0 158 0 0 157 0 157 0 0 156 0 
164 0 0 164 0 0 164 0 0 164 0 0 163 0 0 163 0 0 163 0 0 163 0 0 162 0 0 162 0 0 162 0 0 161 0 0 161 161 161 161 161 161 161 161 161 199 159 20 198 158 20 189 151 19 176 141 18 161 128 16 143 114 14 123 98 12 101 81 10 75 60 7 44 35 4 26 20 3 157 0 0 157 0 0 157 0 0 157 0 0 156 0 0 74 0 0 80 0 0 81 81 81 81 81 81 79 79 79 76 76 76 73 73 73 69 69 69 64 64 64 59 59 59 53 53 53 47 47 47 40 40 40 33 33 33 26 26 26 26 26 26 26 26 26 26 26 26 26 26 26 26 0 0 26 0 0 26 0 0 26 0 0 26 0 0 26 0 0 26 0 0 26 0 0 26 0 0 26 0 0 26 0 0 26 0 0 26 0 0 26 26 26 26 26 26 26 26 26 26 26 26 26 26 26 26 26 26 80 160 16 87 175 17 91 182 18 93 185 19 93 186 19 92 185 18 91 182 18 89 178 18 86 172 17 83 165 17 79 157 16 74 148 15 69 138 14 63 126 13 56 112 11 48 97 10 39 79 8 29 57 6 15 29 3 13 26 3 139 139 139 139 139 139 138 138 138 138 138 138 138 138 138 138 138 138 137 137 137 137 137 137 137 137 137 136 136 136 136 136 136 
166 0 0 165 0 0 165 0 0 165 0 0 165 0 0 164 0 0 164 0 0 164 0 0 164 0 0 163 0 0 163 163 163 163 163 163 163 163 163 162 162 162 200 160 20 203 163 20 196 157 20 186 148 19 172 138 17 157 125 16 139 111 14 119 95 12 97 78 10 73 58 7 44 35 4 26 20 3 159 0 0 159 0 0 158 0 0 158 0 0 158 0 0 157 0 0 59 0 0 65 65 65 66 66 66 66 66 66 64 64 64 61 61 61 57 57 57 52 52 52 47 47 47 41 41 41 35 35 35 28 28 28 26 26 26 26 26 26 26 26 26 26 26 26 26 26 26 26 26 26 26 0 0 26 0 0 26 0 0 26 0 0 26 0 0 26 0 0 26 0 0 26 0 0 26 0 0 26 0 0 26 0 0 26 0 0 26 0 0 26 26 26 26 26 26 26 26 26 26 26 26 26 26 26 26 26 26 74 149 15 82 165 16 86 173 17 88 177 18 89 178 18 88 176 18 87 174 17 85 169 17 82 164 16 79 157 16 75 149 15 70 140 14 65 130 13 59 118 12 52 105 10 45 89 9 36 71 7 25 50 5 13 26 3 13 26 3 141 0 0 140 140 140 140 140 140 140 140 140 140 140 140 139 139 139 139 139 139 139 139 139 139 139 139 138 138 138 138 138 138 
167 0 0 167 0 0 166 0 0 166 0 0 166 0 0 166 0 0 165 0 0 165 0 0 165 165 165 165 165 165 164 164 164 164 164 164 164 164 164 164 164 164 202 162 20 199 160 20 191 153 19 193 157 32 165 132 17 150 120 15 132 106 13 113 90 11 91 73 9 67 53 7 39 32 4 26 20 3 26 20 3 160 0 0 159 0 0 159 0 0 159 0 0 159 0 0 158 0 0 38 38 38 47 47 47 49 49 49 48 48 48 46 46 46 43 43 43 39 39 39 34 34 34 28 28 28 26 26 26 26 26 26 26 26 26 26 26 26 26 26 26 26 26 26 26 26 26 26 26 26 26 0 0 26 0 0 26 0 0 26 0 0 26 0 0 26 0 0 26 0 0 26 0 0 26 0 0 26 0 0 26 0 0 26 0 0 26 0 0 26 0 0 26 26 26 26 26 26 26 26 26 26 26 26 26 26 26 66 133 13 76 152 15 81 161 16 83 166 17 84 167 17 83 167 17 82 164 16 80 160 16 77 155 15 74 148 15 70 140 14 66 131 13 60 121 12 55 109 11 48 96 10 40 80 8 31 62 6 20 40 4 13 26 3 143 0 0 142 0 0 142 0 0 142 0 0 141 141 141 141 141 141 141 141 141 141 141 141 140 140 140 140 140 140 140 140 140 140 140 140 
168 0 0 168 0 0 167 0 0 167 0 0 167 0 0 167 0 0 166 166 166 166 166 166 166 166 166 166 166 166 165 165 165 165 165 165 165 165 165 188 151 19 197 157 20 192 154 19 183 146 18 173 139 20 157 125 16 141 113 14 123 98 12 104 83 10 82 66 8 58 47 6 31 25 3 26 20 3 26 20 3 161 0 0 161 0 0 160 0 0 160 0 0 160 0 0 160 0 0 159 0 0 159 0 0 26 26 26 27 27 27 28 28 28 26 26 26 26 26 26 26 26 26 26 26 26 26 26 26 26 26 26 26 26 26 26 26 26 26 26 26 26 26 26 26 26 26 26 26 26 26 0 0 26 0 0 26 0 0 26 0 0 26 0 0 26 0 0 26 0 0 26 0 0 26 0 0 26 0 0 26 0 0 26 0 0 26 0 0 26 0 0 26 0 0 26 26 26 26 26 26 26 26 26 150 150 150 54 109 11 68 136 14 74 148 15 77 153 15 78 155 16 77 155 15 76 153 15 75 149 15 72 144 14 69 137 14 65 130 13 60 121 12 55 110 11 49 98 10 42 85 8 34 69 7 25 50 5 14 27 3 13 26 3 26 0 0 26 0 0 143 0 0 143 0 0 143 0 0 143 0 0 142 142 142 142 142 142 142 142 142 142 142 142 141 141 141 141 141 141 
169 0 0 169 0 0 168 0 0 168 0 0 168 168 168 168 168 168 167 167 167 167 167 167 167 167 167 167 167 167 166 166 166 166 166 166 166 166 166 183 147 18 187 150 19 182 146 18 172 138 17 160 128 16 146 117 15 130 104 13 112 90 11 93 74 9 71 57 7 47 38 5 26 20 3 26 20 3 26 20 3 162 0 0 162 0 0 161 0 0 161 0 0 161 0 0 161 0 0 160 0 0 160 0 0 160 160 160 159 159 159 26 26 26 26 26 26 26 26 26 26 26 26 26 26 26 26 26 26 26 26 26 26 26 26 26 26 26 26 26 26 26 26 26 26 26 26 26 26 26 26 0 0 26 0 0 26 0 0 26 0 0 26 0 0 26 0 0 26 0 0 26 0 0 26 0 0 26 0 0 26 0 0 26 0 0 26 0 0 152 0 0 152 0 0 152 152 152 151 151 151 151 151 151 151 151 151 150 150 150 58 115 12 65 131 13 69 138 14 71 141 14 71 141 14 70 140 14 68 136 14 66 131 13 63 125 13 59 117 12 54 108 11 49 98 10 43 86 9 36 72 7 28 56 6 18 36 4 13 26 3 13 26 3 26 0 0 26 0 0 26 0 0 26 0 0 26 0 0 26 0 0 26 0 0 143 0 0 143 143 143 143 143 143 143 143 143 142 142 142 
170 0 0 170 0 0 169 169 169 169 169 169 169 169 169 169 169 169 168 168 168 168 168 168 168 168 168 168 168 168 167 167 167 167 167 167 167 167 167 171 137 17 175 140 18 169 136 17 160 128 16 148 118 15 133 107 13 117 94 12 100 80 10 80 64 8 58 47 6 34 28 3 26 20 3 26 20 3 26 20 3 163 0 0 163 0 0 162 0 0 162 0 0 162 0 0 162 0 0 161 0 0 161 161 161 161 161 161 160 160 160 160 160 160 26 26 26 26 26 26 26 26 26 26 26 26 26 26 26 26 26 26 26 26 26 26 26 26 26 26 26 26 26 26 26 26 26 26 26 26 26 0 0 26 0 0 26 0 0 26 0 0 26 0 0 26 0 0 26 0 0 26 0 0 155 0 0 154 0 0 154 0 0 154 0 0 153 0 0 153 0 0 153 0 0 153 0 0 152 152 152 152 152 152 152 152 152 152 152 152 40 79 8 54 108 11 60 119 12 62 124 12 63 125 13 62 125 12 61 122 12 58 117 12 55 111 11 52 103 10 47 94 9 42 84 8 36 71 7 28 57 6 20 39 4 13 26 3 13 26 3 26 0 0 26 0 0 26 0 0 26 0 0 26 0 0 26 0 0 26 0 0 26 0 0 26 0 0 26 0 0 144 0 0 144 144 144 144 144 144 
171 171 171 170 170 170 170 170 170 170 170 170 170 170 170 169 169 169 169 169 169 169 169 169 169 169 169 168 168 168 168 168 168 168 168 168 168 168 168 153 122 15 160 128 16 155 124 15 145 116 15 133 107 13 119 95 12 103 82 10 85 68 9 65 52 7 43 35 4 26 20 3 26 20 3 26 20 3 26 20 3 164 0 0 163 0 0 163 0 0 163 0 0 163 0 0 162 0 0 26 26 26 162 162 162 162 162 162 161 161 161 161 161 161 161 161 161 161 161 161 160 160 160 160 160 160 160 160 160 160 160 160 159 159 159 159 159 159 159 159 159 158 158 158 158 158 158 158 158 158 158 0 0 157 0 0 157 0 0 157 0 0 157 0 0 156 0 0 156 0 0 156 0 0 156 0 0 155 0 0 155 0 0 155 0 0 154 0 0 154 0 0 154 0 0 154 0 0 153 0 0 153 153 153 153 153 153 153 153 153 152 152 152 37 74 7 47 95 9 52 103 10 53 106 11 53 106 11 52 104 10 50 100 10 47 94 9 43 87 9 39 78 8 33 67 7 27 54 5 19 38 4 13 26 3 13 26 3 13 26 3 26 0 0 26 0 0 26 0 0 26 0 0 26 0 0 26 0 0 26 0 0 26 0 0 26 0 0 26 0 0 145 0 0 145 0 0 145 0 0 
171 171 171 171 171 171 171 171 171 170 170 170 170 170 170 170 170 170 170 170 170 170 170 170 169 169 169 169 169 169 169 169 169 169 169 169 168 168 168 168 168 168 140 112 14 137 110 14 128 103 13 117 93 12 103 82 10 86 69 9 68 55 7 48 39 5 26 21 3 26 20 3 26 20 3 26 20 3 26 0 0 26 0 0 26 0 0 26 0 0 26 0 0 26 0 0 26 0 0 26 26 26 26 26 26 26 26 26 26 26 26 162 162 162 162 162 162 161 161 161 161 161 161 161 161 161 161 161 161 160 160 160 160 160 160 160 160 160 160 160 160 159 159 159 159 159 159 159 159 159 159 0 0 158 0 0 158 0 0 158 0 0 158 0 0 157 0 0 157 0 0 157 0 0 156 0 0 156 0 0 156 0 0 156 0 0 155 0 0 155 0 0 155 0 0 155 0 0 154 0 0 154 154 154 154 154 154 154 154 154 153 153 153 153 153 153 28 55 6 37 75 7 41 82 8 42 84 8 42 83 8 40 80 8 37 74 7 33 67 7 29 57 6 23 46 5 16 32 3 13 26 3 13 26 3 13 26 3 26 0 0 26 0 0 26 0 0 26 0 0 26 0 0 26 0 0 26 0 0 26 0 0 26 0 0 26 0 0 26 0 0 147 0 0 146 0 0 146 0 0 
172 172 172 172 172 172 171 171 171 171 171 171 171 171 171 171 171 171 170 170 170 170 170 170 170 170 170 170 170 170 169 169 169 169 169 169 169 169 169 169 169 169 114 91 11 116 92 12 108 87 11 97 78 10 84 67 8 68 54 7 49 39 5 29 23 3 26 20 3 26 20 3 26 20 3 26 20 3 26 0 0 26 0 0 26 0 0 26 0 0 26 0 0 26 0 0 26 26 26 26 26 26 26 26 26 26 26 26 163 163 163 163 163 163 162 162 162 162 162 162 162 162 162 162 162 162 161 161 161 161 161 161 161 161 161 161 161 161 160 160 160 160 160 160 160 160 160 160 160 160 159 0 0 159 0 0 159 0 0 159 0 0 158 0 0 158 0 0 158 0 0 158 0 0 157 0 0 157 0 0 157 0 0 157 0 0 156 0 0 156 0 0 156 0 0 156 0 0 155 0 0 155 0 0 155 155 155 155 155 155 154 154 154 154 154 154 154 154 154 154 154 154 23 46 5 27 54 5 28 56 6 27 54 5 24 49 5 21 41 4 16 32 3 13 26 3 13 26 3 13 26 3 26 26 26 26 26 26 26 0 0 26 0 0 26 0 0 26 0 0 26 0 0 26 0 0 26 0 0 26 0 0 26 0 0 148 0 0 148 0 0 148 0 0 147 0 0 147 0 0 
172 172 172 172 172 172 172 172 172 172 172 172 171 171 171 171 171 171 171 171 171 171 171 171 170 170 170 170 170 170 170 170 170 170 170 170 170 170 170 169 0 0 169 0 0 86 69 9 84 67 8 74 59 7 61 49 6 45 36 5 27 21 3 26 20 3 26 20 3 26 20 3 26 20 3 26 0 0 26 0 0 26 0 0 26 0 0 26 0 0 26 0 0 26 26 26 26 26 26 26 26 26 164 164 164 164 164 164 164 164 164 163 163 163 163 163 163 163 163 163 163 163 163 162 162 162 162 162 162 162 162 162 162 162 162 161 161 161 161 161 161 161 161 161 161 161 161 160 160 160 160 0 0 160 0 0 160 0 0 159 0 0 159 0 0 159 0 0 159 0 0 158 0 0 158 0 0 158 0 0 158 0 0 157 0 0 157 0 0 157 0 0 157 0 0 156 0 0 156 0 0 156 0 0 156 0 0 155 155 155 155 155 155 155 155 155 155 155 155 154 154 154 154 154 154 26 26 26 13 26 3 13 26 3 13 26 3 13 26 3 13 26 3 13 26 3 26 26 26 26 26 26 26 26 26 26 26 26 26 26 26 26 0 0 26 0 0 26 0 0 26 0 0 26 0 0 26 0 0 150 0 0 149 0 0 149 0 0 149 0 0 149 0 0 148 0 0 148 0 0 
173 173 173 173 173 173 172 172 172 172 172 172 172 172 172 172 172 172 171 171 171 171 171 171 171 171 171 171 171 171 171 171 171 170 0 0 170 0 0 170 0 0 170 0 0 169 0 0 45 36 4 43 34 4 32 25 3 26 20 3 26 20 3 26 20 3 26 20 3 26 0 0 26 0 0 26 0 0 26 0 0 26 0 0 26 0 0 26 0 0 26 0 0 165 165 165 165 165 165 165 165 165 165 165 165 164 164 164 164 164 164 164 164 164 164 164 164 164 164 164 163 163 163 163 163 163 163 163 163 163 163 163 162 162 162 162 162 162 162 162 162 162 162 162 161 161 161 161 161 161 161 0 0 161 0 0 160 0 0 160 0 0 160 0 0 160 0 0 159 0 0 159 0 0 159 0 0 159 0 0 158 0 0 158 0 0 158 0 0 158 0 0 157 0 0 157 0 0 157 0 0 157 0 0 156 0 0 156 156 156 156 156 156 156 156 156 155 155 155 155 155 155 155 155 155 155 155 155 155 155 155 154 154 154 26 26 26 26 26 26 26 26 26 26 26 26 26 26 26 26 26 26 26 26 26 26 26 26 26 26 26 26 26 26 152 152 152 151 0 0 151 0 0 151 0 0 151 0 0 150 0 0 150 0 0 150 0 0 150 0 0 150 0 0 149 0 0 149 0 0 
173 173 173 173 173 173 173 173 173 173 173 173 172 172 172 172 172 172 172 172 172 172 172 172 171 171 171 171 171 171 171 0 0 171 0 0 171 0 0 170 0 0 170 0 0 170 0 0 170 0 0 169 0 0 26 0 0 26 0 0 26 0 0 26 0 0 26 0 0 26 0 0 26 0 0 26 0 0 26 0 0 167 0 0 167 0 0 167 0 0 166 166 166 166 166 166 166 166 166 166 166 166 165 165 165 165 165 165 165 165 165 165 165 165 164 164 164 164 164 164 164 164 164 164 164 164 163 163 163 163 163 163 163 163 163 163 163 163 162 162 162 162 162 162 162 162 162 162 162 162 161 0 0 161 0 0 161 0 0 161 0 0 161 0 0 160 0 0 160 0 0 160 0 0 160 0 0 159 0 0 159 0 0 159 0 0 159 0 0 158 0 0 158 0 0 158 0 0 158 0 0 157 0 0 157 0 0 157 0 0 157 157 157 156 156 156 156 156 156 156 156 156 156 156 156 156 156 156 155 155 155 155 155 155 155 155 155 155 155 155 154 154 154 154 154 154 154 154 154 154 154 154 153 153 153 153 153 153 153 153 153 153 153 153 152 152 152 152 152 152 152 0 0 152 0 0 152 0 0 151 0 0 151 0 0 151 0 0 151 0 0 150 0 0 150 0 0 150 0 0 
174 174 174 174 174 174 173 173 173 173 173 173 173 173 173 173 173 173 172 172 172 172 172 172 172 172 172 172 0 0 171 0 0 171 0 0 171 0 0 171 0 0 171 0 0 170 0 0 170 0 0 170 0 0 170 0 0 169 0 0 169 0 0 169 0 0 169 0 0 168 0 0 168 0 0 168 0 0 168 0 0 168 0 0 167 0 0 167 167 167 167 167 167 167 167 167 166 166 166 166 166 166 166 166 166 166 166 166 165 165 165 165 165 165 165 165 165 165 165 165 164 164 164 164 164 164 164 164 164 164 164 164 164 164 164 163 163 163 163 163 163 163 163 163 163 163 163 162 162 162 162 0 0 162 0 0 162 0 0 161 0 0 161 0 0 161 0 0 161 0 0 160 0 0 160 0 0 160 0 0 160 0 0 160 0 0 159 0 0 159 0 0 159 0 0 159 0 0 158 0 0 158 0 0 158 0 0 158 0 0 157 0 0 157 157 157 157 157 157 157 157 157 156 156 156 156 156 156 156 156 156 156 156 156 156 156 156 155 155 155 155 155 155 155 155 155 155 155 155 154 154 154 154 154 154 154 154 154 154 154 154 154 154 154 153 153 153 153 153 153 153 153 153 153 0 0 152 0 0 152 0 0 152 0 0 152 0 0 151 0 0 151 0 0 151 0 0 151 0 0 
174 174 174 174 174 174 174 174 174 173 173 173 173 173 173 173 173 173 173 173 173 173 0 0 172 0 0 172 0 0 172 0 0 172 0 0 171 0 0 171 0 0 171 0 0 171 0 0 171 0 0 170 0 0 170 0 0 170 0 0 170 0 0 169 0 0 169 0 0 169 0 0 169 0 0 168 0 0 168 0 0 168 0 0 168 0 0 168 168 168 167 167 167 167 167 167 167 167 167 167 167 167 166 166 166 166 166 166 166 166 166 166 166 166 165 165 165 165 165 165 165 165 165 165 165 165 165 165 165 164 164 164 164 164 164 164 164 164 164 164 164 163 163 163 163 163 163 163 163 163 163 0 0 162 0 0 162 0 0 162 0 0 162 0 0 162 0 0 161 0 0 161 0 0 161 0 0 161 0 0 160 0 0 160 0 0 160 0 0 160 0 0 159 0 0 159 0 0 159 0 0 159 0 0 159 0 0 158 0 0 158 0 0 158 158 158 158 158 158 157 157 157 157 157 157 157 157 157 157 157 157 156 156 156 156 156 156 156 156 156 156 156 156 156 156 156 155 155 155 155 155 155 155 155 155 155 155 155 154 154 154 154 154 154 154 154 154 154 154 154 154 154 154 153 153 153 153 153 153 153 0 0 153 0 0 152 0 0 152 0 0 152 0 0 152 0 0 152 0 0 
174 174 174 174 174 174 174 174 174 174 174 174 174 174 174 173 173 173 173 0 0 173 0 0 173 0 0 172 0 0 172 0 0 172 0 0 172 0 0 172 0 0 171 0 0 171 0 0 171 0 0 171 0 0 170 0 0 170 0 0 170 0 0 170 0 0 170 0 0 169 0 0 169 0 0 169 0 0 169 0 0 168 0 0 168 168 168 168 168 168 168 168 168 168 168 168 167 167 167 167 167 167 167 167 167 167 167 167 166 166 166 166 166 166 166 166 166 166 166 166 165 165 165 165 165 165 165 165 165 165 165 165 165 165 165 164 164 164 164 164 164 164 164 164 164 164 164 163 163 163 163 0 0 163 0 0 163 0 0 163 0 0 162 0 0 162 0 0 162 0 0 162 0 0 161 0 0 161 0 0 161 0 0 161 0 0 160 0 0 160 0 0 160 0 0 160 0 0 160 0 0 159 0 0 159 0 0 159 0 0 159 0 0 158 0 0 158 158 158 158 158 158 158 158 158 158 158 158 157 157 157 157 157 157 157 157 157 157 157 157 156 156 156 156 156 156 156 156 156 156 156 156 156 156 156 155 155 155 155 155 155 155 155 155 155 155 155 155 155 155 154 154 154 154 154 154 154 154 154 154 154 154 153 0 0 153 0 0 153 0 0 153 0 0 153 0 0 152 0 0 
