P3
100 50
255
80 72 72 26 23 23 26 23 23 79 71 71 79 71 71 26 23 23 26 23 23 26 23 23 26 23 23 26 23 23 78 70 70 26 23 23 26 23 23 26 23 23 77 69 69 26 23 23 26 23 23 76 69 69 26 23 23 26 23 23 26 23 23 26 23 23 75 68 68 75 67 67 75 67 67 26 23 23 26 23 23 74 66 66 26 23 23 26 23 23 26 23 23 73 66 66 26 23 23 72 65 65 26 23 23 26 23 23 26 23 23 71 64 64 71 64 64 71 64 64 26 23 23 26 23 23 26 23 23 26 23 23 26 23 23 69 62 62 69 62 62 68 62 62 26 23 23 26 23 23 26 23 23 26 23 23 26 23 23 237 213 213 237 214 214 26 23 23 26 23 23 26 23 23 26 23 23 238 214 214 238 214 214 238 214 214 238 214 214 26 23 23 26 23 23 26 23 23 26 23 23 26 23 23 238 215 215 26 23 23 26 23 23 26 23 23 26 23 23 26 23 23 26 23 23 238 215 215 26 23 23 238 214 214 26 23 23 26 23 23 26 23 23 26 23 23 238 214 214 26 23 23 26 23 23 238 214 214 26 23 23 26 23 23 238 214 214 238 214 214 26 23 23 26 23 23 26 23 23 26 23 23 26 23 23 237 213 213 237 213 213 26 23 23 26 23 23 26 23 23 
26 23 23 79 71 71 79 71 71 26 23 23 26 23 23 26 23 23 78 71 71 26 23 23 78 70 70 26 23 23 78 70 70 26 23 23 77 69 69 26 23 23 26 23 23 26 23 23 76 69 69 26 23 23 76 68 68 26 23 23 75 68 68 26 23 23 26 23 23 75 67 67 74 67 67 26 23 23 26 23 23 74 66 66 73 66 66 26 23 23 73 66 66 26 23 23 26 23 23 26 23 23 26 23 23 26 23 23 26 23 23 26 23 23 71 64 64 26 23 23 26 23 23 26 23 23 70 63 63 69 63 63 26 23 23 26 23 23 26 23 23 68 61 61 68 61 61 26 23 23 26 23 23 236 213 213 237 213 213 26 23 23 26 23 23 26 23 23 237 214 214 237 214 214 26 23 23 26 23 23 26 23 23 238 214 214 26 23 23 26 23 23 26 23 23 26 23 23 26 23 23 26 23 23 26 23 23 238 214 214 26 23 23 238 214 214 238 214 214 26 23 23 26 23 23 238 214 214 238 214 214 26 23 23 26 23 23 238 214 214 26 23 23 238 214 214 26 23 23 238 214 214 26 23 23 26 23 23 26 23 23 237 214 214 26 23 23 237 214 214 26 23 23 26 23 23 26 23 23 237 213 213 26 23 23 26 23 23 26 23 23 26 23 23 26 23 23 26 23 23 
26 23 23 26 23 23 26 23 23 79 71 71 26 23 23 78 71 71 26 23 23 26 23 23 26 23 23 26 23 23 26 23 23 26 23 23 77 69 69 26 23 23 26 23 23 26 23 23 26 23 23 76 68 68 26 23 23 26 23 23 75 68 68 26 23 23 26 23 23 26 23 23 74 67 67 26 23 23 26 23 23 26 23 23 73 66 66 26 23 23 73 66 66 73 65 65 26 23 23 26 23 23 26 23 23 26 23 23 71 64 64 26 23 23 26 23 23 26 23 23 70 63 63 26 23 23 70 63 63 69 62 62 26 23 23 26 23 23 69 62 62 26 23 23 68 61 61 26 23 23 26 23 23 236 212 212 26 23 23 236 213 213 26 23 23 26 23 23 237 213 213 237 213 213 26 23 23 237 213 213 26 23 23 26 23 23 26 23 23 238 214 214 26 23 23 26 23 23 26 23 23 26 23 23 238 214 214 238 214 214 26 23 23 238 214 214 26 23 23 26 23 23 26 23 23 238 214 214 26 23 23 26 23 23 26 23 23 238 214 214 26 23 23 26 23 23 237 214 214 26 23 23 26 23 23 26 23 23 26 23 23 26 23 23 26 23 23 26 23 23 26 23 23 26 23 23 26 23 23 26 23 23 237 213 213 26 23 23 236 213 213 26 23 23 236 213 213 26 23 23 
26 23 23 26 23 23 26 23 23 79 71 71 26 23 23 26 23 23 78 70 70 26 23 23 78 70 70 78 70 70 26 23 23 77 69 69 77 69 69 26 23 23 26 23 23 26 23 23 26 23 23 76 68 68 76 68 68 26 23 23 26 23 23 75 67 67 26 23 23 26 23 23 74 67 67 26 23 23 74 66 66 26 23 23 73 66 66 26 23 23 26 23 23 26 23 23 26 23 23 26 23 23 72 65 65 26 23 23 26 23 23 71 64 64 71 64 64 26 23 23 26 23 23 70 63 63 26 23 23 26 23 23 26 23 23 26 23 23 68 62 62 26 23 23 68 61 61 26 23 23 26 23 23 235 212 212 26 23 23 236 212 212 26 23 23 26 23 23 26 23 23 26 23 23 237 213 213 26 23 23 26 23 23 237 213 213 237 213 213 26 23 23 26 23 23 237 214 214 26 23 23 26 23 23 26 23 23 26 23 23 26 23 23 26 23 23 26 23 23 237 214 214 26 23 23 237 214 214 26 23 23 26 23 23 26 23 23 26 23 23 26 23 23 237 213 213 237 213 213 26 23 23 26 23 23 26 23 23 26 23 23 237 213 213 237 213 213 26 23 23 237 213 213 26 23 23 26 23 23 236 213 213 26 23 23 26 23 23 236 212 212 236 212 212 26 23 23 26 23 23 
79 71 71 26 23 23 26 23 23 79 71 71 26 23 23 26 23 23 26 23 23 26 23 23 26 23 23 26 23 23 26 23 23 77 69 69 77 69 69 26 23 23 26 23 23 76 69 69 26 23 23 76 68 68 26 23 23 26 23 23 26 23 23 26 23 23 26 23 23 26 23 23 26 23 23 26 23 23 26 23 23 26 23 23 73 66 66 26 23 23 73 65 65 72 65 65 26 23 23 72 65 65 26 23 23 26 23 23 26 23 23 71 64 64 26 23 23 70 63 63 70 63 63 26 23 23 69 63 63 26 23 23 26 23 23 69 62 62 68 61 61 26 23 23 26 23 23 67 61 61 235 211 211 26 23 23 26 23 23 235 212 212 236 212 212 26 23 23 26 23 23 236 213 213 26 23 23 236 213 213 26 23 23 26 23 23 237 213 213 26 23 23 26 23 23 26 23 23 237 213 213 26 23 23 237 213 213 237 213 213 26 23 23 237 213 213 26 23 23 237 213 213 26 23 23 26 23 23 26 23 23 237 213 213 26 23 23 26 23 23 26 23 23 26 23 23 237 213 213 26 23 23 237 213 213 26 23 23 26 23 23 236 213 213 26 23 23 26 23 23 236 213 213 26 23 23 26 23 23 26 23 23 26 23 23 26 23 23 236 212 212 26 23 23 26 23 23 235 212 212 
26 23 23 79 71 71 26 23 23 78 71 71 78 70 70 26 23 23 26 23 23 26 23 23 26 23 23 26 23 23 26 23 23 26 23 23 26 23 23 26 23 23 26 23 23 26 23 23 76 68 68 76 68 68 26 23 23 26 23 23 75 67 67 26 23 23 26 23 23 26 23 23 26 23 23 26 23 23 26 23 23 73 66 66 26 23 23 26 23 23 73 65 65 72 65 65 72 65 65 26 23 23 26 23 23 26 23 23 71 64 64 26 23 23 26 23 23 26 23 23 26 23 23 26 23 23 26 23 23 69 62 62 69 62 62 26 23 23 68 61 61 26 23 23 26 23 23 26 23 23 26 23 23 26 23 23 235 211 211 235 212 212 26 23 23 235 212 212 236 212 212 26 23 23 26 23 23 26 23 23 26 23 23 26 23 23 26 23 23 236 213 213 236 213 213 236 213 213 26 23 23 237 213 213 237 213 213 237 213 213 26 23 23 26 23 23 237 213 213 26 23 23 26 23 23 26 23 23 26 23 23 26 23 23 26 23 23 236 213 213 26 23 23 26 23 23 236 213 213 236 213 213 26 23 23 26 23 23 26 23 23 26 23 23 26 23 23 26 23 23 26 23 23 26 23 23 26 23 23 26 23 23 26 23 23 235 212 212 235 212 212 26 23 23 235 212 212 26 23 23 
26 23 23 26 23 23 26 23 23 26 23 23 78 70 70 78 70 70 26 23 23 26 23 23 26 23 23 26 23 23 26 23 23 77 69 69 26 23 23 26 23 23 26 23 23 26 23 23 26 23 23 26 23 23 26 23 23 26 23 23 75 67 67 75 67 67 26 23 23 74 67 67 74 67 67 74 66 66 73 66 66 26 23 23 73 66 66 26 23 23 26 23 23 72 65 65 26 23 23 26 23 23 26 23 23 26 23 23 26 23 23 26 23 23 70 63 63 70 63 63 70 63 63 26 23 23 26 23 23 69 62 62 26 23 23 26 23 23 68 61 61 26 23 23 68 61 61 26 23 23 26 23 23 234 211 211 26 23 23 26 23 23 26 23 23 26 23 23 235 212 212 26 23 23 26 23 23 236 212 212 26 23 23 236 212 212 26 23 23 26 23 23 26 23 23 26 23 23 26 23 23 26 23 23 236 213 213 26 23 23 26 23 23 26 23 23 26 23 23 236 213 213 236 213 213 236 213 213 236 213 213 26 23 23 236 213 213 26 23 23 26 23 23 26 23 23 26 23 23 26 23 23 26 23 23 26 23 23 26 23 23 26 23 23 236 212 212 26 23 23 26 23 23 26 23 23 26 23 23 26 23 23 235 212 212 235 212 212 26 23 23 26 23 23 26 23 23 26 23 23 
79 71 71 26 23 23 78 71 71 26 23 23 78 70 70 26 23 23 78 70 70 77 70 70 26 23 23 77 69 69 77 69 69 26 23 23 26 23 23 26 23 23 76 68 68 26 23 23 26 23 23 75 68 68 75 68 68 26 23 23 26 23 23 26 23 23 26 23 23 74 67 67 26 23 23 26 23 23 26 23 23 26 23 23 26 23 23 26 23 23 26 23 23 26 23 23 26 23 23 26 23 23 26 23 23 26 23 23 26 23 23 26 23 23 26 23 23 26 23 23 70 63 63 26 23 23 69 62 62 26 23 23 26 23 23 26 23 23 26 23 23 26 23 23 26 23 23 67 60 60 233 210 210 26 23 23 26 23 23 26 23 23 26 23 23 26 23 23 26 23 23 26 23 23 26 23 23 26 23 23 26 23 23 26 23 23 26 23 23 26 23 23 26 23 23 26 23 23 26 23 23 26 23 23 26 23 23 26 23 23 26 23 23 236 212 212 26 23 23 26 23 23 26 23 23 26 23 23 236 212 212 26 23 23 26 23 23 26 23 23 26 23 23 236 212 212 236 212 212 26 23 23 26 23 23 235 212 212 26 23 23 26 23 23 26 23 23 26 23 23 235 212 212 26 23 23 235 212 212 235 211 211 26 23 23 235 211 211 26 23 23 235 211 211 26 23 23 235 211 211 
26 23 23 26 23 23 78 70 70 26 23 23 78 70 70 78 70 70 26 23 23 26 23 23 26 23 23 26 23 23 26 23 23 77 69 69 76 69 69 26 23 23 26 23 23 26 23 23 26 23 23 26 23 23 26 23 23 26 23 23 75 67 67 26 23 23 26 23 23 26 23 23 26 23 23 26 23 23 73 66 66 73 66 66 73 65 65 26 23 23 72 65 65 72 65 65 26 23 23 72 64 64 71 64 64 71 64 64 26 23 23 70 63 63 26 23 23 26 23 23 3 26 13 3 26 13 3 26 13 12 122 61 26 23 23 26 23 23 26 23 23 26 23 23 26 23 23 67 60 60 233 210 210 26 23 23 26 23 23 234 210 210 26 23 23 26 23 23 234 211 211 26 23 23 235 211 211 235 211 211 26 23 23 26 23 23 235 211 211 26 23 23 235 212 212 235 212 212 235 212 212 26 23 23 235 212 212 235 212 212 26 23 23 235 212 212 235 212 212 26 23 23 26 23 23 26 23 23 26 23 23 26 23 23 26 23 23 235 212 212 26 23 23 26 23 23 26 23 23 26 23 23 26 23 23 26 23 23 26 23 23 235 212 212 235 211 211 26 23 23 26 23 23 26 23 23 26 23 23 26 23 23 235 211 211 235 211 211 26 23 23 234 211 211 26 23 23 26 23 23 
79 71 71 26 23 23 26 23 23 26 23 23 78 70 70 26 23 23 26 23 23 26 23 23 26 23 23 26 23 23 77 69 69 26 23 23 26 23 23 76 68 68 76 68 68 26 23 23 75 68 68 26 23 23 26 23 23 75 67 67 26 23 23 26 23 23 26 23 23 26 23 23 74 66 66 26 23 23 26 23 23 26 23 23 26 23 23 26 23 23 26 23 23 72 65 65 26 23 23 71 64 64 26 23 23 26 23 23 3 26 13 3 26 13 3 26 13 3 26 13 16 161 81 16 155 78 3 26 13 14 140 70 3 26 13 12 121 60 3 26 13 9 91 46 26 23 23 26 23 23 26 23 23 26 23 23 26 23 23 26 23 23 26 23 23 26 23 23 234 210 210 26 23 23 234 211 211 26 23 23 26 23 23 26 23 23 235 211 211 235 211 211 26 23 23 26 23 23 235 211 211 26 23 23 235 211 211 26 23 23 26 23 23 26 23 23 26 23 23 235 212 212 26 23 23 235 212 212 26 23 23 26 23 23 26 23 23 26 23 23 235 211 211 26 23 23 26 23 23 235 211 211 26 23 23 235 211 211 235 211 211 26 23 23 26 23 23 26 23 23 26 23 23 26 23 23 26 23 23 26 23 23 26 23 23 234 211 211 26 23 23 26 23 23 26 23 23 234 210 210 
26 23 23 78 70 70 26 23 23 78 70 70 78 70 70 26 23 23 77 70 70 26 23 23 26 23 23 77 69 69 26 23 23 76 69 69 26 23 23 26 23 23 76 68 68 26 23 23 26 23 23 26 23 23 26 23 23 26 23 23 26 23 23 26 23 23 74 67 67 26 23 23 26 23 23 26 23 23 26 23 23 73 65 65 26 23 23 72 65 65 26 23 23 26 23 23 26 23 23 26 23 23 18 183 92 19 185 93 3 26 13 3 26 13 18 177 89 3 26 13 3 26 13 16 161 80 3 26 13 3 26 13 3 26 13 13 129 65 12 119 60 11 108 54 9 94 47 3 26 13 26 23 23 26 23 23 233 209 209 26 23 23 26 23 23 26 23 23 26 23 23 234 210 210 26 23 23 234 210 210 26 23 23 234 211 211 26 23 23 26 23 23 26 23 23 26 23 23 26 23 23 26 23 23 26 23 23 26 23 23 235 211 211 26 23 23 26 23 23 26 23 23 26 23 23 26 23 23 26 23 23 26 23 23 26 23 23 26 23 23 26 23 23 26 23 23 26 23 23 26 23 23 26 23 23 234 211 211 26 23 23 26 23 23 234 211 211 26 23 23 234 211 211 26 23 23 26 23 23 234 211 211 26 23 23 234 210 210 234 210 210 26 23 23 234 210 210 26 23 23 
78 70 70 78 70 70 78 70 70 26 23 23 26 23 23 26 23 23 26 23 23 77 69 69 26 23 23 77 69 69 26 23 23 26 23 23 76 68 68 26 23 23 26 23 23 26 23 23 26 23 23 75 67 67 26 23 23 74 67 67 74 67 67 74 67 67 74 66 66 74 66 66 26 23 23 26 23 23 26 23 23 26 23 23 72 65 65 26 23 23 26 23 23 26 23 23 18 184 92 3 26 13 3 26 13 19 192 96 3 26 13 19 185 93 3 26 13 3 26 13 17 170 85 3 26 13 3 26 13 3 26 13 3 26 13 13 133 67 3 26 13 3 26 13 10 102 51 9 89 44 7 72 36 26 23 23 26 23 23 26 23 23 26 23 23 26 23 23 26 23 23 26 23 23 233 210 210 26 23 23 233 210 210 26 23 23 26 23 23 234 210 210 234 210 210 26 23 23 26 23 23 234 211 211 26 23 23 26 23 23 26 23 23 234 211 211 26 23 23 26 23 23 26 23 23 26 23 23 234 211 211 234 211 211 234 211 211 26 23 23 234 211 211 26 23 23 234 211 211 26 23 23 26 23 23 234 211 211 26 23 23 234 211 211 26 23 23 26 23 23 26 23 23 26 23 23 234 210 210 26 23 23 26 23 23 26 23 23 26 23 23 233 210 210 233 210 210 233 210 210 
26 23 23 26 23 23 78 70 70 78 70 70 77 70 70 77 70 70 77 69 69 26 23 23 77 69 69 26 23 23 26 23 23 26 23 23 26 23 23 76 68 68 26 23 23 26 23 23 26 23 23 75 67 67 26 23 23 74 67 67 74 67 67 26 23 23 26 23 23 73 66 66 26 23 23 26 23 23 26 23 23 73 65 65 72 65 65 72 65 65 26 23 23 3 26 13 20 197 99 3 26 13 20 197 98 3 26 13 3 26 13 19 187 93 18 182 91 3 26 13 17 171 86 3 26 13 3 26 13 15 151 76 3 26 13 14 135 68 13 126 63 3 26 13 3 26 13 3 26 13 3 26 13 3 26 13 3 26 13 26 23 23 26 23 23 232 209 209 232 209 209 26 23 23 26 23 23 233 210 210 26 23 23 26 23 23 26 23 23 233 210 210 26 23 23 26 23 23 26 23 23 234 210 210 234 210 210 26 23 23 234 210 210 234 210 210 234 210 210 26 23 23 26 23 23 26 23 23 234 210 210 26 23 23 26 23 23 26 23 23 234 210 210 26 23 23 234 210 210 26 23 23 26 23 23 26 23 23 234 210 210 26 23 23 234 210 210 26 23 23 26 23 23 233 210 210 26 23 23 233 210 210 233 210 210 233 210 210 233 210 210 233 210 210 26 23 23 26 23 23 
26 23 23 78 70 70 78 70 70 26 23 23 77 70 70 77 69 69 26 23 23 26 23 23 26 23 23 26 23 23 76 69 69 76 68 68 26 23 23 76 68 68 26 23 23 75 68 68 26 23 23 26 23 23 26 23 23 26 23 23 26 23 23 26 23 23 26 23 23 26 23 23 73 66 66 73 66 66 73 65 65 26 23 23 26 23 23 72 65 65 3 26 13 3 26 13 20 201 101 20 200 100 20 198 99 20 195 98 3 26 13 19 187 93 3 26 13 18 177 88 17 171 86 16 165 82 3 26 13 15 151 76 3 26 13 3 26 13 3 26 13 3 26 13 11 108 54 3 26 13 3 26 13 3 26 13 3 26 13 3 26 13 26 23 23 26 23 23 26 23 23 26 23 23 26 23 23 26 23 23 233 209 209 26 23 23 26 23 23 26 23 23 26 23 23 233 210 210 26 23 23 26 23 23 26 23 23 26 23 23 233 210 210 26 23 23 26 23 23 233 210 210 233 210 210 233 210 210 26 23 23 26 23 23 26 23 23 26 23 23 26 23 23 26 23 23 26 23 23 26 23 23 233 210 210 26 23 23 233 210 210 233 210 210 233 210 210 233 210 210 26 23 23 26 23 23 26 23 23 26 23 23 233 210 210 233 210 210 26 23 23 233 209 209 233 209 209 26 23 23 
26 23 23 78 70 70 78 70 70 77 70 70 26 23 23 77 69 69 26 23 23 77 69 69 26 23 23 76 69 69 26 23 23 26 23 23 76 68 68 75 68 68 26 23 23 26 23 23 26 23 23 26 23 23 74 67 67 26 23 23 26 23 23 26 23 23 73 66 66 26 23 23 26 23 23 73 66 66 26 23 23 72 65 65 72 65 65 19 191 96 20 201 101 20 203 102 20 203 101 3 26 13 20 198 99 3 26 13 3 26 13 19 186 93 3 26 13 3 26 13 17 170 85 16 164 82 16 158 79 3 26 13 14 143 72 14 136 68 13 127 64 12 118 59 11 109 54 10 99 49 9 87 44 7 75 37 6 60 30 3 26 13 3 26 13 26 23 23 26 23 23 26 23 23 232 209 209 232 209 209 232 209 209 26 23 23 232 209 209 232 209 209 26 23 23 26 23 23 26 23 23 26 23 23 26 23 23 233 210 210 26 23 23 233 210 210 26 23 23 26 23 23 233 210 210 26 23 23 233 210 210 233 210 210 233 210 210 233 210 210 26 23 23 233 210 210 26 23 23 26 23 23 26 23 23 26 23 23 233 210 210 233 210 210 26 23 23 26 23 23 233 209 209 26 23 23 233 209 209 26 23 23 233 209 209 26 23 23 232 209 209 232 209 209 232 209 209 232 209 209 
26 23 23 26 23 23 26 23 23 77 70 70 77 69 69 26 23 23 77 69 69 76 69 69 76 69 69 26 23 23 26 23 23 76 68 68 26 23 23 26 23 23 26 23 23 26 23 23 26 23 23 26 23 23 74 67 67 26 23 23 26 23 23 26 23 23 73 66 66 26 23 23 26 23 23 26 23 23 26 23 23 72 65 65 26 23 23 3 26 13 3 26 13 20 204 102 3 26 13 3 26 13 3 26 13 3 26 13 3 26 13 3 26 13 18 180 90 3 26 13 3 26 13 3 26 13 16 156 78 15 149 75 3 26 13 3 26 13 3 26 13 3 26 13 11 109 54 3 26 13 3 26 13 3 26 13 3 26 13 3 26 13 3 26 13 231 208 208 231 208 208 231 208 208 231 208 208 26 23 23 232 209 209 26 23 23 26 23 23 232 209 209 26 23 23 26 23 23 26 23 23 26 23 23 26 23 23 26 23 23 26 23 23 233 209 209 233 209 209 26 23 23 26 23 23 26 23 23 26 23 23 233 209 209 26 23 23 26 23 23 26 23 23 233 209 209 26 23 23 26 23 23 26 23 23 26 23 23 26 23 23 26 23 23 232 209 209 26 23 23 26 23 23 232 209 209 232 209 209 232 209 209 26 23 23 232 209 209 232 209 209 26 23 23 26 23 23 26 23 23 
78 70 70 78 70 70 26 23 23 26 23 23 77 69 69 77 69 69 26 23 23 26 23 23 26 23 23 26 23 23 76 68 68 26 23 23 26 23 23 26 23 23 26 23 23 75 67 67 26 23 23 26 23 23 74 67 67 26 23 23 26 23 23 26 23 23 26 23 23 26 23 23 73 66 66 26 23 23 26 23 23 26 23 23 20 196 98 20 202 101 20 204 102 3 26 13 3 26 13 3 26 13 3 26 13 19 192 96 3 26 13 3 26 13 3 26 13 17 173 86 17 167 83 3 26 13 3 26 13 15 148 74 3 26 13 13 133 66 3 26 13 12 116 58 11 107 54 3 26 13 3 26 13 8 76 38 6 63 32 3 26 13 3 31 16 3 26 13 231 208 208 231 208 208 26 23 23 26 23 23 26 23 23 26 23 23 26 23 23 232 208 208 26 23 23 232 209 209 26 23 23 26 23 23 26 23 23 232 209 209 26 23 23 26 23 23 26 23 23 26 23 23 26 23 23 232 209 209 26 23 23 26 23 23 26 23 23 26 23 23 26 23 23 232 209 209 26 23 23 26 23 23 232 209 209 26 23 23 26 23 23 26 23 23 26 23 23 232 209 209 26 23 23 26 23 23 26 23 23 26 23 23 232 209 209 232 209 209 26 23 23 26 23 23 232 208 208 26 23 23 
26 23 23 26 23 23 26 23 23 26 23 23 77 69 69 26 23 23 76 69 69 26 23 23 26 23 23 26 23 23 26 23 23 26 23 23 26 23 23 75 68 68 75 67 67 26 23 23 26 23 23 26 23 23 26 23 23 74 66 66 74 66 66 26 23 23 26 23 23 26 23 23 73 65 65 26 23 23 26 23 23 18 181 90 3 26 13 20 202 101 20 203 101 20 202 101 3 26 13 3 26 13 3 26 13 3 26 13 19 185 93 3 26 13 3 26 13 17 170 85 16 164 82 16 158 79 3 26 13 3 26 13 14 138 69 3 26 13 12 123 61 11 115 57 3 26 13 3 26 13 3 26 13 3 26 13 6 63 32 5 49 25 3 26 13 3 26 13 26 23 23 230 207 207 26 23 23 26 23 23 26 23 23 26 23 23 26 23 23 26 23 23 26 23 23 231 208 208 26 23 23 26 23 23 26 23 23 26 23 23 232 209 209 26 23 23 232 209 209 26 23 23 26 23 23 232 209 209 26 23 23 26 23 23 26 23 23 26 23 23 232 209 209 26 23 23 26 23 23 26 23 23 26 23 23 232 209 209 232 209 209 232 209 209 26 23 23 26 23 23 26 23 23 26 23 23 26 23 23 232 208 208 26 23 23 231 208 208 26 23 23 231 208 208 26 23 23 26 23 23 
26 23 23 77 70 70 26 23 23 77 69 69 77 69 69 77 69 69 26 23 23 76 69 69 26 23 23 26 23 23 76 68 68 75 68 68 75 68 68 26 23 23 75 67 67 26 23 23 74 67 67 26 23 23 26 23 23 26 23 23 26 23 23 26 23 23 26 23 23 26 23 23 73 65 65 26 23 23 72 65 65 3 26 13 3 26 13 3 26 13 3 26 13 20 199 100 20 197 99 3 26 13 3 26 13 3 26 13 34 198 107 3 26 13 3 26 13 3 26 13 16 162 81 3 26 13 3 26 13 3 26 13 14 136 68 3 26 13 3 26 13 3 26 13 3 26 13 3 26 13 8 84 42 3 26 13 3 26 13 3 26 13 3 26 13 3 26 13 3 26 13 26 23 23 230 207 207 230 207 207 26 23 23 26 23 23 26 23 23 231 208 208 26 23 23 26 23 23 26 23 23 26 23 23 26 23 23 26 23 23 26 23 23 26 23 23 231 208 208 26 23 23 26 23 23 231 208 208 26 23 23 26 23 23 26 23 23 26 23 23 26 23 23 26 23 23 26 23 23 231 208 208 26 23 23 26 23 23 26 23 23 231 208 208 231 208 208 26 23 23 26 23 23 26 23 23 231 208 208 26 23 23 231 208 208 231 208 208 231 208 208 26 23 23 26 23 23 231 208 208 
77 70 70 26 23 23 26 23 23 77 69 69 26 23 23 76 69 69 26 23 23 26 23 23 76 68 68 26 23 23 26 23 23 75 68 68 26 23 23 26 23 23 26 23 23 26 23 23 26 23 23 26 23 23 26 23 23 26 23 23 26 23 23 26 23 23 26 23 23 26 23 23 72 65 65 72 65 65 26 23 23 3 26 13 20 197 99 20 199 99 3 26 13 20 197 98 3 26 13 19 191 96 20 189 95 3 26 13 3 26 13 3 26 13 3 26 13 3 26 13 3 26 13 15 152 76 3 26 13 3 26 13 13 133 66 3 26 13 12 117 59 3 26 13 3 26 13 3 26 13 3 26 13 3 26 13 3 26 13 5 47 24 3 33 16 3 26 13 3 26 13 229 206 206 26 23 23 26 23 23 26 23 23 26 23 23 26 23 23 26 23 23 230 207 207 230 207 207 26 23 23 26 23 23 26 23 23 26 23 23 26 23 23 26 23 23 26 23 23 26 23 23 231 208 208 231 208 208 26 23 23 26 23 23 26 23 23 231 208 208 26 23 23 26 23 23 26 23 23 26 23 23 26 23 23 26 23 23 26 23 23 26 23 23 231 208 208 26 23 23 26 23 23 231 208 208 26 23 23 26 23 23 231 208 208 26 23 23 231 208 208 26 23 23 26 23 23 231 208 208 
77 69 69 26 23 23 26 23 23 77 69 69 26 23 23 26 23 23 26 23 23 76 68 68 76 68 68 26 23 23 75 68 68 26 23 23 75 67 67 26 23 23 74 67 67 26 23 23 26 23 23 26 23 23 26 23 23 26 23 23 26 23 23 73 66 66 26 23 23 26 23 23 26 23 23 26 23 23 3 26 13 19 191 95 3 26 13 3 26 13 19 195 97 19 193 97 3 26 13 3 26 13 3 26 13 3 26 13 3 26 13 17 171 86 3 26 13 3 26 13 15 155 77 15 149 74 3 26 13 3 26 13 3 26 13 3 26 13 11 114 57 11 106 53 10 98 49 3 26 13 3 26 13 7 68 34 6 57 29 3 26 13 3 31 15 3 26 13 3 26 13 26 23 23 26 23 23 26 23 23 26 23 23 229 207 207 26 23 23 26 23 23 26 23 23 26 23 23 26 23 23 26 23 23 26 23 23 230 207 207 26 23 23 230 207 207 26 23 23 26 23 23 26 23 23 26 23 23 26 23 23 26 23 23 231 208 208 26 23 23 26 23 23 26 23 23 26 23 23 26 23 23 26 23 23 231 208 208 26 23 23 26 23 23 26 23 23 26 23 23 26 23 23 231 207 207 231 207 207 26 23 23 26 23 23 26 23 23 230 207 207 26 23 23 230 207 207 230 207 207 
26 23 23 26 23 23 26 23 23 77 69 69 76 69 69 76 69 69 26 23 23 76 68 68 76 68 68 75 68 68 26 23 23 26 23 23 75 67 67 26 23 23 26 23 23 26 23 23 26 23 23 26 23 23 74 66 66 26 23 23 26 23 23 73 66 66 26 23 23 26 23 23 26 23 23 26 23 23 18 178 89 3 26 13 19 191 96 3 26 13 19 191 96 19 189 95 3 26 13 18 184 92 3 26 13 18 177 89 3 26 13 3 26 13 3 26 13 3 26 13 15 151 76 3 26 13 14 139 69 3 26 13 13 125 63 3 26 13 3 26 13 10 103 51 9 94 47 3 26 13 3 26 13 7 65 33 3 26 13 3 26 13 3 26 13 3 26 13 3 26 13 3 26 13 26 23 23 26 23 23 26 23 23 26 23 23 26 23 23 26 23 23 26 23 23 26 23 23 26 23 23 26 23 23 26 23 23 26 23 23 26 23 23 26 23 23 230 207 207 26 23 23 26 23 23 26 23 23 230 207 207 26 23 23 230 207 207 26 23 23 26 23 23 230 207 207 26 23 23 26 23 23 26 23 23 26 23 23 26 23 23 230 207 207 26 23 23 26 23 23 230 207 207 230 207 207 230 207 207 26 23 23 230 207 207 230 207 207 230 207 207 26 23 23 26 23 23 26 23 23 
77 69 69 26 23 23 26 23 23 26 23 23 26 23 23 26 23 23 26 23 23 76 68 68 75 68 68 26 23 23 75 68 68 26 23 23 26 23 23 74 67 67 74 67 67 74 67 67 26 23 23 74 66 66 73 66 66 26 23 23 73 66 66 73 65 65 26 23 23 26 23 23 72 65 65 26 23 23 18 176 88 18 185 92 19 187 94 19 188 94 3 26 13 3 26 13 3 26 13 18 180 90 3 26 13 3 26 13 17 168 84 16 163 81 16 158 79 15 153 76 3 26 13 3 26 13 3 26 13 3 26 13 3 26 13 3 26 13 3 26 13 3 26 13 3 26 13 3 26 13 7 72 36 3 26 13 3 26 13 3 26 13 3 26 13 3 26 13 3 26 13 3 26 13 26 23 23 26 23 23 228 206 206 26 23 23 26 23 23 229 206 206 229 206 206 229 206 206 26 23 23 26 23 23 26 23 23 26 23 23 230 207 207 26 23 23 26 23 23 230 207 207 26 23 23 230 207 207 26 23 23 26 23 23 230 207 207 230 207 207 26 23 23 230 207 207 230 207 207 26 23 23 230 207 207 26 23 23 230 207 207 26 23 23 26 23 23 26 23 23 26 23 23 230 207 207 230 207 207 26 23 23 26 23 23 26 23 23 26 23 23 230 207 207 26 23 23 230 207 207 
26 23 23 77 69 69 76 69 69 26 23 23 76 68 68 76 68 68 26 23 23 26 23 23 26 23 23 26 23 23 75 67 67 75 67 67 75 67 67 26 23 23 26 23 23 74 67 67 26 23 23 26 23 23 26 23 23 26 23 23 73 66 66 26 23 23 26 23 23 26 23 23 26 23 23 26 23 23 3 26 13 3 26 13 3 26 13 18 183 92 18 182 91 3 26 13 3 26 13 3 26 13 3 26 13 3 26 13 3 26 13 16 158 79 15 153 77 3 26 13 14 142 71 14 137 68 3 26 13 3 26 13 3 26 13 3 26 13 3 26 13 3 26 13 9 86 43 3 26 13 3 26 13 6 57 29 5 46 23 3 26 13 3 26 13 3 26 13 3 26 13 3 26 13 228 205 205 26 23 23 26 23 23 26 23 23 26 23 23 26 23 23 26 23 23 26 23 23 26 23 23 229 206 206 26 23 23 229 206 206 26 23 23 26 23 23 26 23 23 229 206 206 26 23 23 26 23 23 26 23 23 26 23 23 26 23 23 229 207 207 26 23 23 26 23 23 26 23 23 26 23 23 230 207 207 26 23 23 26 23 23 230 207 207 229 207 207 229 207 207 26 23 23 26 23 23 26 23 23 26 23 23 229 206 206 229 206 206 26 23 23 229 206 206 229 206 206 26 23 23 
26 23 23 26 23 23 76 69 69 26 23 23 26 23 23 76 68 68 26 23 23 26 23 23 26 23 23 26 23 23 75 67 67 26 23 23 26 23 23 26 23 23 26 23 23 74 66 66 74 66 66 26 23 23 26 23 23 26 23 23 26 23 23 26 23 23 26 23 23 26 23 23 72 65 65 72 64 64 17 167 83 18 175 88 3 26 13 3 26 13 3 26 13 3 26 13 3 26 13 3 26 13 3 26 13 3 26 13 16 158 79 15 154 77 3 26 13 3 26 13 3 26 13 3 26 13 13 126 63 12 119 60 3 26 13 11 105 53 10 98 49 3 26 13 8 81 41 3 26 13 3 26 13 5 53 26 3 26 13 3 29 15 3 26 13 3 26 13 3 26 13 3 26 13 26 23 23 26 23 23 227 205 205 228 205 205 228 205 205 26 23 23 26 23 23 228 205 205 228 205 205 26 23 23 26 23 23 26 23 23 229 206 206 26 23 23 26 23 23 26 23 23 229 206 206 229 206 206 26 23 23 26 23 23 229 206 206 26 23 23 26 23 23 26 23 23 26 23 23 229 206 206 229 206 206 26 23 23 26 23 23 26 23 23 26 23 23 229 206 206 26 23 23 26 23 23 26 23 23 26 23 23 229 206 206 26 23 23 26 23 23 229 206 206 229 206 206 26 23 23 
26 23 23 26 23 23 76 69 69 26 23 23 76 68 68 26 23 23 75 68 68 26 23 23 75 68 68 26 23 23 26 23 23 26 23 23 26 23 23 74 67 67 74 66 66 26 23 23 26 23 23 26 23 23 73 66 66 26 23 23 73 65 65 72 65 65 26 23 23 26 23 23 26 23 23 26 23 23 3 26 13 17 169 85 3 26 13 3 26 13 17 172 86 17 170 85 3 26 13 16 165 82 3 26 13 16 157 79 3 26 13 3 26 13 14 143 72 3 26 13 13 133 66 13 127 63 3 26 13 3 26 13 3 26 13 10 100 50 3 26 13 3 26 13 8 76 38 3 26 13 3 26 13 5 47 24 4 36 18 3 26 13 3 26 13 3 26 13 3 26 13 3 26 13 26 23 23 227 204 204 26 23 23 26 23 23 26 23 23 26 23 23 26 23 23 26 23 23 228 205 205 26 23 23 228 205 205 26 23 23 228 205 205 26 23 23 26 23 23 228 206 206 26 23 23 26 23 23 26 23 23 26 23 23 229 206 206 26 23 23 26 23 23 229 206 206 26 23 23 26 23 23 26 23 23 229 206 206 229 206 206 26 23 23 26 23 23 26 23 23 26 23 23 229 206 206 26 23 23 229 206 206 26 23 23 229 206 206 26 23 23 26 23 23 26 23 23 26 23 23 
76 69 69 26 23 23 26 23 23 76 68 68 76 68 68 76 68 68 26 23 23 26 23 23 26 23 23 26 23 23 26 23 23 26 23 23 26 23 23 26 23 23 74 66 66 26 23 23 26 23 23 73 66 66 26 23 23 73 65 65 26 23 23 26 23 23 72 65 65 26 23 23 72 64 64 26 23 23 15 152 76 3 26 13 3 26 13 3 26 13 3 26 13 3 26 13 3 26 13 3 26 13 16 156 78 3 26 13 3 26 13 14 143 71 14 138 69 3 26 13 3 26 13 3 26 13 12 115 58 11 109 54 3 26 13 3 26 13 3 26 13 3 26 13 3 26 13 6 62 31 5 52 26 4 42 21 3 31 15 3 26 13 3 26 13 3 26 13 3 26 13 3 26 13 26 23 23 226 204 204 26 23 23 26 23 23 26 23 23 26 23 23 227 204 204 227 204 204 26 23 23 26 23 23 228 205 205 26 23 23 26 23 23 26 23 23 26 23 23 228 205 205 26 23 23 77 154 15 79 158 16 77 155 15 74 148 15 13 26 3 13 26 3 47 94 9 228 205 205 26 23 23 26 23 23 228 206 206 26 23 23 26 23 23 26 23 23 228 206 206 26 23 23 26 23 23 26 23 23 26 23 23 228 205 205 228 205 205 228 205 205 26 23 23 26 23 23 228 205 205 
76 69 69 26 23 23 26 23 23 26 23 23 26 23 23 26 23 23 75 68 68 75 67 67 26 23 23 75 67 67 26 23 23 74 67 67 26 23 23 74 66 66 74 66 66 26 23 23 26 23 23 73 66 66 26 23 23 26 23 23 26 23 23 72 65 65 26 23 23 26 23 23 26 23 23 71 64 64 3 26 13 3 26 13 16 158 79 3 26 13 16 159 80 3 26 13 3 26 13 3 26 13 3 26 13 15 146 73 3 26 13 3 26 13 3 26 13 3 26 13 3 26 13 12 116 58 3 26 13 3 26 13 10 96 48 3 26 13 8 81 41 7 73 37 3 26 13 3 26 13 5 46 23 3 26 13 3 26 13 3 26 13 3 26 13 3 26 13 3 26 13 3 26 13 226 203 203 226 203 203 26 23 23 226 204 204 26 23 23 26 23 23 26 23 23 26 23 23 227 204 204 26 23 23 26 23 23 26 23 23 26 23 23 26 23 23 26 23 23 86 171 17 13 26 3 91 181 18 90 179 18 87 174 17 13 26 3 13 26 3 13 26 3 13 26 3 13 26 3 13 26 3 26 23 23 228 205 205 228 205 205 26 23 23 26 23 23 26 23 23 26 23 23 26 23 23 228 205 205 228 205 205 26 23 23 26 23 23 26 23 23 26 23 23 26 23 23 228 205 205 
26 23 23 26 23 23 26 23 23 26 23 23 26 23 23 26 23 23 26 23 23 26 23 23 75 67 67 26 23 23 26 23 23 74 67 67 74 67 67 26 23 23 26 23 23 26 23 23 26 23 23 73 66 66 26 23 23 72 65 65 26 23 23 26 23 23 26 23 23 26 23 23 26 23 23 26 23 23 26 23 23 15 145 73 3 26 13 15 152 76 15 152 76 15 151 76 3 26 13 3 26 13 3 26 13 14 140 70 14 135 68 13 131 65 3 26 13 12 121 60 3 26 13 11 110 55 3 26 13 10 97 48 3 26 13 3 26 13 3 26 13 3 26 13 3 26 13 3 26 13 3 26 13 3 26 13 3 26 13 3 26 13 3 26 13 3 26 13 3 26 13 26 23 23 26 23 23 225 203 203 225 203 203 26 23 23 26 23 23 26 23 23 226 204 204 26 23 23 226 204 204 227 204 204 227 204 204 227 204 204 26 23 23 76 151 15 13 26 3 96 191 19 13 26 3 96 193 19 13 26 3 92 184 18 13 26 3 13 26 3 78 156 16 72 143 14 13 26 3 54 107 11 39 79 8 26 23 23 26 23 23 228 205 205 228 205 205 26 23 23 26 23 23 228 205 205 26 23 23 26 23 23 26 23 23 26 23 23 26 23 23 26 23 23 26 23 23 227 205 205 
26 23 23 76 68 68 76 68 68 75 68 68 26 23 23 26 23 23 75 67 67 26 23 23 26 23 23 26 23 23 26 23 23 74 67 67 26 23 23 26 23 23 26 23 23 26 23 23 26 23 23 26 23 23 26 23 23 26 23 23 26 23 23 26 23 23 26 23 23 26 23 23 26 23 23 26 23 23 26 23 23 13 134 67 3 26 13 14 144 72 14 145 72 3 26 13 3 26 13 3 26 13 3 26 13 13 133 66 13 129 64 12 124 62 12 120 60 3 26 13 3 26 13 10 103 52 3 26 13 9 90 45 3 26 13 8 76 38 7 69 34 3 26 13 3 26 13 3 26 13 3 33 16 3 26 13 3 26 13 3 26 13 3 26 13 3 26 13 3 26 13 224 202 202 225 202 202 26 23 23 225 202 202 225 203 203 26 23 23 225 203 203 226 203 203 26 23 23 26 23 23 226 203 203 26 23 23 26 23 23 26 23 23 92 185 18 98 196 20 100 200 20 100 200 20 13 26 3 13 26 3 94 189 19 91 181 18 13 26 3 81 162 16 75 150 15 68 135 14 59 118 12 48 97 10 34 67 7 26 23 23 227 204 204 227 204 204 26 23 23 26 23 23 26 23 23 26 23 23 227 204 204 26 23 23 26 23 23 227 204 204 227 204 204 227 204 204 26 23 23 
26 23 23 26 23 23 26 23 23 26 23 23 26 23 23 26 23 23 26 23 23 26 23 23 74 67 67 26 23 23 26 23 23 74 66 66 26 23 23 26 23 23 26 23 23 26 23 23 73 66 66 73 65 65 26 23 23 26 23 23 26 23 23 26 23 23 72 64 64 26 23 23 26 23 23 26 23 23 26 23 23 12 118 59 3 26 13 14 135 68 3 26 13 14 136 68 13 134 67 3 26 13 3 26 13 3 26 13 3 26 13 12 117 59 3 26 13 11 108 54 3 26 13 3 26 13 3 26 13 3 26 13 3 26 13 7 69 35 3 26 13 5 53 27 3 26 13 4 35 18 3 26 13 3 26 13 3 26 13 3 26 13 3 26 13 3 26 13 3 26 13 138 124 124 26 23 23 224 202 202 26 23 23 225 202 202 26 23 23 26 23 23 26 23 23 26 23 23 26 23 23 26 23 23 26 23 23 26 23 23 89 179 18 13 26 3 100 201 20 102 203 20 101 203 20 100 200 20 98 196 20 95 190 19 92 183 18 87 175 17 82 164 16 76 153 15 70 139 14 62 124 12 52 105 10 41 81 8 23 46 5 26 23 23 26 23 23 26 23 23 26 23 23 227 204 204 26 23 23 26 23 23 26 23 23 26 23 23 26 23 23 227 204 204 26 23 23 26 23 23 
26 23 23 26 23 23 26 23 23 26 23 23 26 23 23 75 67 67 75 67 67 26 23 23 74 67 67 74 67 67 26 23 23 74 66 66 26 23 23 26 23 23 73 66 66 73 66 66 73 65 65 26 23 23 72 65 65 72 65 65 26 23 23 72 64 64 26 23 23 71 64 64 71 64 64 71 64 64 26 23 23 26 23 23 12 118 59 3 26 13 3 26 13 3 26 13 3 26 13 12 124 62 12 121 61 3 26 13 3 26 13 3 26 13 3 26 13 10 100 50 3 26 13 3 26 13 3 26 13 8 76 38 7 69 35 6 62 31 5 54 27 3 26 13 4 37 18 3 27 14 3 26 13 3 26 13 3 26 13 3 26 13 3 26 13 3 26 13 26 23 23 141 127 127 140 126 126 140 126 126 140 126 126 26 23 23 26 23 23 26 23 23 26 23 23 26 23 23 26 23 23 26 23 23 26 23 23 79 157 16 13 26 3 99 198 20 101 202 20 102 204 20 13 26 3 100 200 20 13 26 3 95 190 19 91 183 18 13 26 3 82 165 16 13 26 3 70 140 14 13 26 3 54 108 11 44 87 9 30 60 6 13 26 3 26 23 23 26 23 23 226 204 204 226 204 204 26 23 23 226 204 204 226 204 204 26 23 23 26 23 23 26 23 23 26 23 23 26 23 23 
26 23 23 75 68 68 26 23 23 75 68 68 75 67 67 75 67 67 26 23 23 74 67 67 74 67 67 26 23 23 26 23 23 26 23 23 73 66 66 73 66 66 73 66 66 26 23 23 26 23 23 26 23 23 72 65 65 72 65 65 26 23 23 26 23 23 26 23 23 26 23 23 26 23 23 26 23 23 26 23 23 26 23 23 10 98 49 11 112 56 3 26 13 12 117 59 3 26 13 12 115 58 11 113 56 3 26 13 11 106 53 10 102 51 10 97 49 3 26 13 9 87 43 3 26 13 7 75 37 3 26 13 6 61 31 3 26 13 3 26 13 4 37 19 3 26 13 3 26 13 3 26 13 3 26 13 3 26 13 3 26 13 3 26 13 3 26 13 26 23 23 26 23 23 26 23 23 26 23 23 26 23 23 26 23 23 26 23 23 26 23 23 26 23 23 26 23 23 26 23 23 26 23 23 26 23 23 85 169 17 13 26 3 99 197 20 101 201 20 13 26 3 100 201 20 105 204 26 100 196 22 13 26 3 90 181 18 86 172 17 81 163 16 76 152 15 70 139 14 13 26 3 13 26 3 13 26 3 32 64 6 14 28 3 26 23 23 26 23 23 226 203 203 226 203 203 226 203 203 26 23 23 226 203 203 226 203 203 226 203 203 26 23 23 26 23 23 26 23 23 
26 23 23 75 68 68 75 68 68 75 67 67 26 23 23 26 23 23 26 23 23 74 67 67 26 23 23 26 23 23 26 23 23 26 23 23 26 23 23 73 66 66 26 23 23 73 65 65 26 23 23 26 23 23 26 20 3 26 20 3 26 20 3 110 88 11 26 20 3 26 23 23 26 23 23 26 23 23 26 23 23 154 139 139 154 138 138 3 26 13 3 26 13 3 26 13 11 106 53 11 105 53 3 26 13 3 26 13 3 26 13 9 93 46 3 26 13 3 26 13 8 78 39 7 72 36 7 66 33 6 60 30 3 26 13 4 45 22 3 26 13 3 28 14 3 26 13 3 26 13 3 26 13 3 26 13 3 26 13 3 26 13 3 26 13 26 23 23 26 23 23 26 23 23 26 23 23 26 23 23 26 23 23 26 23 23 26 23 23 26 23 23 26 23 23 26 23 23 26 23 23 26 23 23 26 23 23 85 171 17 93 187 19 97 194 19 13 26 3 99 198 20 13 26 3 13 26 3 13 26 3 92 184 18 88 177 18 84 169 17 80 159 16 13 26 3 13 26 3 61 122 12 13 26 3 44 88 9 32 65 6 17 34 3 26 23 23 26 23 23 26 23 23 226 203 203 226 203 203 26 23 23 26 23 23 26 23 23 226 203 203 226 203 203 226 203 203 26 23 23 
75 68 68 75 68 68 26 23 23 26 23 23 26 23 23 26 23 23 26 23 23 74 67 67 26 23 23 26 23 23 26 23 23 26 23 23 26 23 23 26 23 23 159 143 143 26 23 23 187 150 19 185 148 19 175 140 17 26 20 3 26 20 3 122 98 12 26 20 3 70 56 7 26 20 3 26 23 23 156 140 140 26 23 23 26 23 23 26 23 23 3 26 13 3 26 13 9 94 47 3 26 13 3 26 13 9 90 45 9 87 44 3 26 13 3 26 13 7 74 37 3 26 13 3 26 13 3 26 13 3 26 13 4 43 22 3 26 13 3 27 14 3 26 13 3 26 13 3 26 13 3 26 13 3 26 13 3 26 13 3 26 13 26 23 23 26 23 23 26 23 23 26 23 23 26 23 23 26 23 23 26 23 23 26 23 23 26 23 23 26 23 23 26 23 23 26 23 23 26 23 23 26 23 23 26 23 23 83 167 17 13 26 3 13 26 3 96 192 19 13 26 3 96 192 19 13 26 3 92 184 18 13 26 3 13 26 3 82 164 16 77 154 15 13 26 3 66 132 13 59 118 12 51 103 10 13 26 3 13 26 3 13 26 3 26 23 23 26 23 23 26 23 23 26 23 23 225 203 203 26 23 23 26 23 23 26 23 23 26 23 23 225 203 203 225 203 203 225 203 203 
75 68 68 26 23 23 26 23 23 26 23 23 26 23 23 26 23 23 26 23 23 163 146 146 162 146 146 26 23 23 162 146 146 162 145 145 161 145 145 26 23 23 161 145 145 199 159 20 198 158 20 26 20 3 26 20 3 26 20 3 26 20 3 26 20 3 101 81 10 75 60 7 44 35 4 26 20 3 26 23 23 26 23 23 157 141 141 26 23 23 26 23 23 7 74 37 3 26 13 8 81 41 8 81 40 8 79 39 3 26 13 3 26 13 7 69 34 6 64 32 3 26 13 3 26 13 5 47 23 4 40 20 3 33 16 3 26 13 3 26 13 3 26 13 3 26 13 3 26 13 3 26 13 3 26 13 3 26 13 26 23 23 26 23 23 26 23 23 26 23 23 26 23 23 26 23 23 26 23 23 26 23 23 26 23 23 26 23 23 26 23 23 26 23 23 26 23 23 26 23 23 26 23 23 26 23 23 80 160 16 87 175 17 91 182 18 93 185 19 93 186 19 92 185 18 13 26 3 13 26 3 13 26 3 13 26 3 79 157 16 74 148 15 13 26 3 63 126 13 56 112 11 13 26 3 39 79 8 29 57 6 15 29 3 13 26 3 139 125 125 26 23 23 139 125 125 138 124 124 26 23 23 26 23 23 26 23 23 26 23 23 26 23 23 26 23 23 225 202 202 
166 149 149 165 149 149 165 149 149 165 148 148 165 148 148 164 148 148 164 148 148 26 23 23 26 23 23 26 23 23 163 147 147 163 147 147 26 23 23 162 146 146 200 160 20 26 20 3 26 20 3 26 20 3 26 20 3 26 20 3 26 20 3 26 20 3 26 20 3 73 58 7 44 35 4 26 20 3 26 23 23 26 23 23 158 142 142 158 142 142 158 142 142 157 142 142 3 26 13 6 65 32 3 26 13 3 26 13 6 64 32 6 61 30 3 26 13 5 52 26 5 47 24 4 41 21 3 26 13 3 26 13 3 26 13 3 26 13 3 26 13 3 26 13 3 26 13 3 26 13 3 26 13 3 26 13 26 23 23 26 23 23 26 23 23 26 23 23 26 23 23 26 23 23 26 23 23 26 23 23 26 23 23 26 23 23 26 23 23 26 23 23 26 23 23 26 23 23 26 23 23 26 23 23 26 23 23 13 26 3 82 165 16 13 26 3 88 177 18 89 178 18 88 176 18 87 174 17 85 169 17 82 164 16 79 157 16 75 149 15 70 140 14 13 26 3 59 118 12 13 26 3 13 26 3 13 26 3 25 50 5 13 26 3 13 26 3 141 127 127 26 23 23 26 23 23 26 23 23 140 126 126 139 125 125 139 125 125 139 125 125 26 23 23 138 124 124 138 124 124 
167 150 150 26 23 23 166 150 150 26 23 23 166 149 149 26 23 23 165 149 149 26 23 23 165 148 148 26 23 23 164 148 148 26 23 23 26 23 23 26 23 23 202 162 20 26 20 3 191 153 19 26 20 3 165 132 17 26 20 3 26 20 3 26 20 3 26 20 3 67 53 7 26 20 3 26 20 3 26 20 3 26 23 23 160 144 144 159 143 143 159 143 143 159 143 143 158 143 143 4 38 19 5 47 24 5 49 24 5 48 24 3 26 13 4 43 21 3 26 13 3 34 17 3 26 13 3 26 13 3 26 13 3 26 13 3 26 13 3 26 13 3 26 13 3 26 13 3 26 13 3 26 13 26 23 23 26 23 23 26 23 23 26 23 23 26 23 23 26 23 23 26 23 23 26 23 23 26 23 23 26 23 23 26 23 23 26 23 23 26 23 23 26 23 23 26 23 23 26 23 23 26 23 23 26 23 23 66 133 13 76 152 15 81 161 16 83 166 17 84 167 17 83 167 17 82 164 16 80 160 16 77 155 15 13 26 3 13 26 3 66 131 13 60 121 12 55 109 11 48 96 10 40 80 8 31 62 6 20 40 4 13 26 3 26 23 23 142 128 128 26 23 23 142 128 128 26 23 23 141 127 127 26 23 23 141 127 127 26 23 23 140 126 126 26 23 23 140 126 126 
168 151 151 26 23 23 26 23 23 26 23 23 26 23 23 26 23 23 167 150 150 166 150 150 166 149 149 26 23 23 165 149 149 26 23 23 165 148 148 26 20 3 197 157 20 26 20 3 26 20 3 26 20 3 157 125 16 26 20 3 26 20 3 104 83 10 26 20 3 58 47 6 26 20 3 26 20 3 26 20 3 161 145 145 161 145 145 160 144 144 160 144 144 160 144 144 160 144 144 159 143 143 159 143 143 3 26 13 3 26 13 3 28 14 3 26 13 3 26 13 3 26 13 3 26 13 3 26 13 3 26 13 3 26 13 3 26 13 3 26 13 3 26 13 3 26 13 26 23 23 26 23 23 26 23 23 26 23 23 26 23 23 26 23 23 26 23 23 26 23 23 26 23 23 26 23 23 26 23 23 26 23 23 26 23 23 26 23 23 26 23 23 26 23 23 26 23 23 26 23 23 150 135 135 150 135 135 54 109 11 68 136 14 74 148 15 77 153 15 78 155 16 77 155 15 76 153 15 13 26 3 13 26 3 69 137 14 65 130 13 13 26 3 55 110 11 13 26 3 42 85 8 13 26 3 25 50 5 14 27 3 13 26 3 26 23 23 26 23 23 26 23 23 143 129 129 143 129 129 143 128 128 26 23 23 26 23 23 26 23 23 26 23 23 26 23 23 141 127 127 
169 152 152 26 23 23 168 152 152 168 151 151 26 23 23 26 23 23 167 151 151 167 151 151 26 23 23 167 150 150 166 150 150 26 23 23 166 149 149 26 20 3 26 20 3 26 20 3 26 20 3 26 20 3 26 20 3 130 104 13 112 90 11 26 20 3 71 57 7 47 38 5 26 20 3 26 20 3 26 20 3 162 146 146 162 146 146 161 145 145 161 145 145 26 23 23 161 145 145 160 144 144 26 23 23 160 144 144 26 23 23 26 23 23 3 26 13 3 26 13 3 26 13 3 26 13 3 26 13 3 26 13 3 26 13 3 26 13 26 23 23 26 23 23 26 23 23 26 23 23 26 23 23 26 23 23 26 23 23 26 23 23 26 23 23 26 23 23 26 23 23 26 23 23 26 23 23 26 23 23 26 23 23 26 23 23 26 23 23 152 137 137 152 137 137 26 23 23 151 136 136 151 136 136 26 23 23 151 135 135 58 115 12 65 131 13 69 138 14 71 141 14 71 141 14 70 140 14 13 26 3 66 131 13 13 26 3 59 117 12 54 108 11 49 98 10 43 86 9 13 26 3 28 56 6 13 26 3 13 26 3 13 26 3 26 23 23 26 23 23 26 23 23 26 23 23 26 23 23 26 23 23 26 23 23 26 23 23 143 129 129 143 129 129 26 23 23 142 128 128 
170 153 153 26 23 23 169 152 152 26 23 23 26 23 23 169 152 152 168 152 152 26 23 23 168 151 151 168 151 151 167 151 151 26 23 23 167 150 150 26 20 3 26 20 3 26 20 3 26 20 3 148 118 15 26 20 3 26 20 3 100 80 10 80 64 8 58 47 6 26 20 3 26 20 3 26 20 3 26 20 3 26 23 23 26 23 23 26 23 23 26 23 23 162 146 146 26 23 23 161 145 145 26 23 23 161 145 145 26 23 23 160 144 144 160 144 144 26 23 23 26 23 23 26 23 23 26 23 23 26 23 23 26 23 23 26 23 23 26 23 23 26 23 23 26 23 23 26 23 23 26 23 23 26 23 23 26 23 23 26 23 23 26 23 23 26 23 23 26 23 23 155 139 139 155 139 139 154 139 139 154 139 139 154 138 138 154 138 138 26 23 23 153 138 138 26 23 23 152 137 137 26 23 23 152 137 137 26 23 23 40 79 8 13 26 3 13 26 3 13 26 3 13 26 3 62 125 12 61 122 12 58 117 12 55 111 11 52 103 10 13 26 3 42 84 8 36 71 7 13 26 3 20 39 4 13 26 3 13 26 3 26 23 23 26 23 23 26 23 23 26 23 23 26 23 23 26 23 23 26 23 23 26 23 23 26 23 23 26 23 23 144 130 130 26 23 23 144 129 129 
171 154 154 26 23 23 170 153 153 170 153 153 170 153 153 26 23 23 169 152 152 169 152 152 169 152 152 26 23 23 168 151 151 168 151 151 168 151 151 26 20 3 26 20 3 26 20 3 26 20 3 26 20 3 119 95 12 26 20 3 85 68 9 26 20 3 26 20 3 26 20 3 26 20 3 26 20 3 26 20 3 164 147 147 26 23 23 26 23 23 163 147 147 26 23 23 26 23 23 26 23 23 26 23 23 162 146 146 26 23 23 161 145 145 161 145 145 26 23 23 26 23 23 26 23 23 26 23 23 160 144 144 159 143 143 159 143 143 26 23 23 26 23 23 158 142 142 158 142 142 158 142 142 157 142 142 26 23 23 26 23 23 157 141 141 156 141 141 156 141 141 26 23 23 26 23 23 26 23 23 26 23 23 155 139 139 155 139 139 26 23 23 154 139 139 154 138 138 154 138 138 26 23 23 153 138 138 153 137 137 26 23 23 13 26 3 13 26 3 52 103 10 13 26 3 13 26 3 52 104 10 50 100 10 47 94 9 43 87 9 39 78 8 33 67 7 13 26 3 19 38 4 13 26 3 13 26 3 13 26 3 26 23 23 26 23 23 26 23 23 26 23 23 26 23 23 26 23 23 26 23 23 26 23 23 26 23 23 26 23 23 145 131 131 26 23 23 26 23 23 
26 23 23 26 23 23 26 23 23 171 153 153 26 23 23 26 23 23 170 153 153 170 153 153 26 23 23 169 152 152 169 152 152 169 152 152 26 23 23 26 23 23 140 112 14 26 20 3 26 20 3 117 93 12 26 20 3 26 20 3 26 20 3 26 20 3 26 21 3 26 20 3 26 20 3 26 20 3 26 23 23 26 23 23 26 23 23 26 23 23 26 23 23 26 23 23 26 23 23 26 23 23 26 23 23 26 23 23 26 23 23 26 23 23 162 146 146 161 145 145 161 145 145 161 145 145 161 145 145 26 23 23 26 23 23 160 144 144 160 144 144 159 143 143 159 143 143 159 143 143 159 143 143 158 143 143 158 142 142 158 142 142 158 142 142 26 23 23 26 23 23 157 141 141 157 141 141 156 141 141 156 140 140 156 140 140 26 23 23 26 23 23 155 139 139 26 23 23 154 139 139 26 23 23 154 139 139 154 138 138 26 23 23 26 23 23 13 26 3 37 75 7 41 82 8 42 84 8 42 83 8 40 80 8 13 26 3 33 67 7 13 26 3 23 46 5 16 32 3 13 26 3 13 26 3 13 26 3 26 23 23 26 23 23 26 23 23 26 23 23 26 23 23 26 23 23 26 23 23 26 23 23 26 23 23 26 23 23 26 23 23 26 23 23 26 23 23 26 23 23 
26 23 23 26 23 23 26 23 23 26 23 23 171 154 154 171 154 154 26 23 23 26 23 23 170 153 153 170 153 153 26 23 23 26 23 23 169 152 152 169 152 152 114 91 11 26 20 3 26 20 3 97 78 10 84 67 8 26 20 3 26 20 3 26 20 3 26 20 3 26 20 3 26 20 3 26 20 3 26 23 23 26 23 23 26 23 23 26 23 23 26 23 23 26 23 23 26 23 23 26 23 23 26 23 23 26 23 23 163 147 147 26 23 23 26 23 23 26 23 23 162 146 146 162 146 146 26 23 23 161 145 145 161 145 145 26 23 23 26 23 23 160 144 144 160 144 144 160 144 144 159 143 143 159 143 143 159 143 143 26 23 23 26 23 23 158 142 142 158 142 142 26 23 23 157 142 142 157 141 141 26 23 23 26 23 23 26 23 23 156 141 141 156 140 140 156 140 140 26 23 23 155 140 140 155 139 139 26 23 23 26 23 23 154 139 139 26 23 23 26 23 23 13 26 3 27 54 5 28 56 6 27 54 5 24 49 5 21 41 4 13 26 3 13 26 3 13 26 3 13 26 3 26 23 23 26 23 23 26 23 23 26 23 23 26 23 23 26 23 23 26 23 23 26 23 23 26 23 23 26 23 23 26 23 23 148 133 133 26 23 23 148 133 133 26 23 23 26 23 23 
172 155 155 172 155 155 26 23 23 26 23 23 26 23 23 171 154 154 171 154 154 171 154 154 26 23 23 26 23 23 170 153 153 26 23 23 170 153 153 169 152 152 169 152 152 86 69 9 26 20 3 26 20 3 61 49 6 26 20 3 27 21 3 26 20 3 26 20 3 26 20 3 26 20 3 26 23 23 26 23 23 26 23 23 26 23 23 26 23 23 26 23 23 26 23 23 26 23 23 26 23 23 26 23 23 26 23 23 164 147 147 163 147 147 26 23 23 163 147 147 163 146 146 26 23 23 162 146 146 26 23 23 26 23 23 161 145 145 26 23 23 161 145 145 26 23 23 160 144 144 160 144 144 26 23 23 160 144 144 26 23 23 159 143 143 26 23 23 26 23 23 158 143 143 26 23 23 158 142 142 158 142 142 26 23 23 157 141 141 157 141 141 26 23 23 26 23 23 156 141 141 156 140 140 156 140 140 155 140 140 26 23 23 155 139 139 26 23 23 26 23 23 154 139 139 26 23 23 13 26 3 13 26 3 13 26 3 13 26 3 13 26 3 13 26 3 26 23 23 26 23 23 26 23 23 26 23 23 26 23 23 26 23 23 26 23 23 26 23 23 26 23 23 26 23 23 150 135 135 150 135 135 149 134 134 26 23 23 26 23 23 26 23 23 148 134 134 148 133 133 
173 156 156 173 155 155 172 155 155 172 155 155 26 23 23 172 155 155 26 23 23 171 154 154 171 154 154 26 23 23 171 154 154 26 23 23 26 23 23 26 23 23 26 23 23 26 23 23 45 36 4 26 20 3 32 25 3 26 20 3 26 20 3 26 20 3 26 20 3 26 23 23 26 23 23 26 23 23 26 23 23 26 23 23 26 23 23 26 23 23 26 23 23 166 149 149 26 23 23 165 149 149 165 148 148 26 23 23 26 23 23 26 23 23 26 23 23 164 147 147 26 23 23 163 147 147 26 23 23 26 23 23 162 146 146 162 146 146 26 23 23 162 145 145 26 23 23 26 23 23 26 23 23 26 23 23 160 144 144 26 23 23 160 144 144 160 144 144 26 23 23 26 23 23 159 143 143 26 23 23 158 143 143 26 23 23 26 23 23 26 23 23 26 23 23 157 141 141 157 141 141 26 23 23 156 141 141 26 23 23 156 140 140 26 23 23 156 140 140 155 140 140 26 23 23 155 139 139 155 139 139 26 23 23 26 23 23 26 23 23 26 23 23 26 23 23 26 23 23 26 23 23 26 23 23 26 23 23 26 23 23 26 23 23 26 23 23 151 136 136 26 23 23 151 136 136 151 136 136 26 23 23 150 135 135 26 23 23 150 135 135 150 135 135 149 134 134 149 134 134 
173 156 156 173 156 156 26 23 23 26 23 23 172 155 155 172 155 155 172 155 155 172 155 155 172 154 154 171 154 154 171 154 154 26 23 23 26 23 23 26 23 23 170 153 153 26 23 23 170 153 153 169 152 152 26 23 23 26 23 23 26 23 23 26 23 23 26 23 23 26 23 23 26 23 23 26 23 23 167 151 151 167 150 150 167 150 150 167 150 150 166 150 150 166 149 149 166 149 149 166 149 149 165 149 149 26 23 23 26 23 23 165 148 148 164 148 148 164 148 148 164 148 148 26 23 23 26 23 23 26 23 23 26 23 23 26 23 23 26 23 23 26 23 23 26 23 23 26 23 23 26 23 23 26 23 23 26 23 23 26 23 23 26 23 23 26 23 23 26 23 23 26 23 23 26 23 23 159 143 143 159 143 143 159 143 143 159 143 143 26 23 23 26 23 23 158 142 142 158 142 142 157 142 142 157 142 142 157 141 141 157 141 141 157 141 141 156 141 141 156 140 140 26 23 23 26 23 23 155 140 140 155 140 140 155 139 139 26 23 23 154 139 139 26 23 23 154 139 139 154 138 138 26 23 23 153 138 138 26 23 23 26 23 23 26 23 23 152 137 137 152 137 137 152 137 137 152 136 136 151 136 136 151 136 136 151 136 136 26 23 23 26 23 23 150 135 135 150 135 135 
174 156 156 174 156 156 26 23 23 173 156 156 26 23 23 173 155 155 26 23 23 26 23 23 172 155 155 172 155 155 171 154 154 26 23 23 171 154 154 171 154 154 171 154 154 170 153 153 170 153 153 26 23 23 170 153 153 169 152 152 26 23 23 26 23 23 169 152 152 168 152 152 168 151 151 26 23 23 168 151 151 26 23 23 167 151 151 26 23 23 167 150 150 26 23 23 166 150 150 166 150 150 26 23 23 26 23 23 165 149 149 26 23 23 165 148 148 26 23 23 26 23 23 164 148 148 164 148 148 164 147 147 26 23 23 163 147 147 163 147 147 163 147 147 26 23 23 162 146 146 162 146 146 26 23 23 162 145 145 161 145 145 161 145 145 26 23 23 161 145 145 160 144 144 160 144 144 26 23 23 26 23 23 160 144 144 26 23 23 159 143 143 26 23 23 26 23 23 158 143 143 158 142 142 26 23 23 158 142 142 26 23 23 157 142 142 26 23 23 157 141 141 26 23 23 156 141 141 156 140 140 156 140 140 26 23 23 26 23 23 155 140 140 155 139 139 26 23 23 154 139 139 154 139 139 154 139 139 154 138 138 154 138 138 26 23 23 153 138 138 153 138 138 153 137 137 26 23 23 26 23 23 152 137 137 26 23 23 152 136 136 26 23 23 151 136 136 151 136 136 
26 23 23 174 157 157 26 23 23 173 156 156 173 156 156 26 23 23 26 23 23 173 155 155 172 155 155 172 155 155 26 23 23 26 23 23 171 154 154 26 23 23 171 154 154 171 154 154 26 23 23 26 23 23 26 23 23 170 153 153 170 153 153 26 23 23 169 152 152 169 152 152 26 23 23 168 152 152 168 151 151 168 151 151 168 151 151 168 151 151 167 151 151 167 150 150 167 150 150 167 150 150 166 150 150 166 150 150 26 23 23 166 149 149 26 23 23 165 149 149 165 149 149 165 148 148 165 148 148 164 148 148 164 148 148 26 23 23 164 147 147 163 147 147 26 23 23 26 23 23 26 23 23 26 23 23 162 146 146 162 146 146 26 23 23 162 145 145 161 145 145 161 145 145 161 145 145 161 145 145 160 144 144 26 23 23 160 144 144 26 23 23 159 144 144 159 143 143 26 23 23 159 143 143 159 143 143 158 143 143 158 142 142 158 142 142 158 142 142 157 142 142 157 141 141 26 23 23 157 141 141 157 141 141 26 23 23 156 140 140 156 140 140 26 23 23 26 23 23 26 23 23 155 139 139 155 139 139 26 23 23 154 139 139 26 23 23 26 23 23 154 138 138 153 138 138 153 138 138 26 23 23 26 23 23 153 137 137 152 137 137 26 23 23 152 137 137 26 23 23 
26 23 23 26 23 23 174 157 157 26 23 23 174 156 156 173 156 156 26 23 23 173 156 156 173 155 155 26 23 23 26 23 23 26 23 23 26 23 23 26 23 23 26 23 23 171 154 154 26 23 23 26 23 23 26 23 23 170 153 153 26 23 23 170 153 153 170 153 153 169 152 152 169 152 152 169 152 152 169 152 152 168 152 152 168 151 151 168 151 151 168 151 151 26 23 23 167 151 151 26 23 23 167 150 150 26 23 23 166 150 150 166 150 150 26 23 23 166 149 149 166 149 149 165 149 149 26 23 23 165 148 148 165 148 148 26 23 23 164 148 148 164 148 148 164 147 147 163 147 147 163 147 147 163 147 147 163 147 147 163 146 146 26 23 23 162 146 146 162 146 146 26 23 23 161 145 145 161 145 145 161 145 145 26 23 23 161 144 144 160 144 144 26 23 23 160 144 144 26 23 23 159 143 143 26 23 23 159 143 143 159 143 143 159 143 143 158 142 142 158 142 142 158 142 142 158 142 142 157 142 142 157 141 141 157 141 141 26 23 23 157 141 141 26 23 23 26 23 23 26 23 23 156 140 140 26 23 23 26 23 23 26 23 23 26 23 23 26 23 23 26 23 23 154 139 139 154 139 139 26 23 23 153 138 138 153 138 138 26 23 23 153 138 138 26 23 23 26 23 23 
